<mxfile host="app.diagrams.net" agent="Mozilla/5.0 (Windows NT 10.0; Win64; x64) AppleWebKit/537.36 (KHTML, like Gecko) Chrome/133.0.0.0 Safari/537.36" version="26.1.0">
  <diagram name="PÃ¡gina-1" id="Irix9DyMp88MgO9fXmrI">
    <mxGraphModel dx="4097" dy="3300" grid="1" gridSize="10" guides="1" tooltips="1" connect="1" arrows="1" fold="1" page="1" pageScale="1" pageWidth="827" pageHeight="1169" math="0" shadow="0">
      <root>
        <mxCell id="0" />
        <mxCell id="1" parent="0" />
        <object label="" heigth="50&#xa;" id="ee28yyPHF1UoalUS08Q_-102">
          <mxCell style="shape=hexagon;perimeter=hexagonPerimeter2;whiteSpace=wrap;html=1;fixedSize=1;perimeterSpacing=0;autosize=1;resizeHeight=0;resizeWidth=0;fixedWidth=0;size=20;" parent="1" vertex="1">
            <mxGeometry x="720" y="125" width="80" height="70" as="geometry" />
          </mxCell>
        </object>
        <object label="" heigth="50&#xa;" id="ee28yyPHF1UoalUS08Q_-103">
          <mxCell style="shape=hexagon;perimeter=hexagonPerimeter2;whiteSpace=wrap;html=1;fixedSize=1;perimeterSpacing=0;autosize=1;resizeHeight=0;resizeWidth=0;fixedWidth=0;size=20;" parent="1" vertex="1">
            <mxGeometry x="780" y="160" width="80" height="70" as="geometry" />
          </mxCell>
        </object>
        <object label="" heigth="50&#xa;" id="ee28yyPHF1UoalUS08Q_-104">
          <mxCell style="shape=hexagon;perimeter=hexagonPerimeter2;whiteSpace=wrap;html=1;fixedSize=1;perimeterSpacing=0;autosize=1;resizeHeight=0;resizeWidth=0;fixedWidth=0;size=20;" parent="1" vertex="1">
            <mxGeometry x="780" y="90" width="80" height="70" as="geometry" />
          </mxCell>
        </object>
        <object label="" heigth="50&#xa;" id="ee28yyPHF1UoalUS08Q_-105">
          <mxCell style="shape=hexagon;perimeter=hexagonPerimeter2;whiteSpace=wrap;html=1;fixedSize=1;perimeterSpacing=0;autosize=1;resizeHeight=0;resizeWidth=0;fixedWidth=0;size=20;" parent="1" vertex="1">
            <mxGeometry x="840" y="55" width="80" height="70" as="geometry" />
          </mxCell>
        </object>
        <object label="" heigth="50&#xa;" id="ee28yyPHF1UoalUS08Q_-106">
          <mxCell style="shape=hexagon;perimeter=hexagonPerimeter2;whiteSpace=wrap;html=1;fixedSize=1;perimeterSpacing=0;autosize=1;resizeHeight=0;resizeWidth=0;fixedWidth=0;size=20;" parent="1" vertex="1">
            <mxGeometry x="780" y="20" width="80" height="70" as="geometry" />
          </mxCell>
        </object>
        <object label="" heigth="50&#xa;" id="ee28yyPHF1UoalUS08Q_-107">
          <mxCell style="shape=hexagon;perimeter=hexagonPerimeter2;whiteSpace=wrap;html=1;fixedSize=1;perimeterSpacing=0;autosize=1;resizeHeight=0;resizeWidth=0;fixedWidth=0;size=20;" parent="1" vertex="1">
            <mxGeometry x="840" y="-15" width="80" height="70" as="geometry" />
          </mxCell>
        </object>
        <object label="" heigth="50&#xa;" id="ee28yyPHF1UoalUS08Q_-2">
          <mxCell style="shape=hexagon;perimeter=hexagonPerimeter2;whiteSpace=wrap;html=1;fixedSize=1;perimeterSpacing=0;autosize=1;resizeHeight=0;resizeWidth=0;fixedWidth=0;size=20;" parent="1" vertex="1">
            <mxGeometry x="360" y="965" width="80" height="70" as="geometry" />
          </mxCell>
        </object>
        <object label="" heigth="50&#xa;" id="ee28yyPHF1UoalUS08Q_-6">
          <mxCell style="shape=hexagon;perimeter=hexagonPerimeter2;whiteSpace=wrap;html=1;fixedSize=1;perimeterSpacing=0;autosize=1;resizeHeight=0;resizeWidth=0;fixedWidth=0;size=20;" parent="1" vertex="1">
            <mxGeometry x="420" y="930" width="80" height="70" as="geometry" />
          </mxCell>
        </object>
        <object label="" heigth="50&#xa;" id="ee28yyPHF1UoalUS08Q_-7">
          <mxCell style="shape=hexagon;perimeter=hexagonPerimeter2;whiteSpace=wrap;html=1;fixedSize=1;perimeterSpacing=0;autosize=1;resizeHeight=0;resizeWidth=0;fixedWidth=0;size=20;" parent="1" vertex="1">
            <mxGeometry x="420" y="1000" width="80" height="70" as="geometry" />
          </mxCell>
        </object>
        <object label="" heigth="50&#xa;" id="ee28yyPHF1UoalUS08Q_-8">
          <mxCell style="shape=hexagon;perimeter=hexagonPerimeter2;whiteSpace=wrap;html=1;fixedSize=1;perimeterSpacing=0;autosize=1;resizeHeight=0;resizeWidth=0;fixedWidth=0;size=20;" parent="1" vertex="1">
            <mxGeometry x="480" y="965" width="80" height="70" as="geometry" />
          </mxCell>
        </object>
        <object label="" heigth="50&#xa;" id="ee28yyPHF1UoalUS08Q_-9">
          <mxCell style="shape=hexagon;perimeter=hexagonPerimeter2;whiteSpace=wrap;html=1;fixedSize=1;perimeterSpacing=0;autosize=1;resizeHeight=0;resizeWidth=0;fixedWidth=0;size=20;" parent="1" vertex="1">
            <mxGeometry x="540" y="930" width="80" height="70" as="geometry" />
          </mxCell>
        </object>
        <object label="" heigth="50&#xa;" id="ee28yyPHF1UoalUS08Q_-10">
          <mxCell style="shape=hexagon;perimeter=hexagonPerimeter2;whiteSpace=wrap;html=1;fixedSize=1;perimeterSpacing=0;autosize=1;resizeHeight=0;resizeWidth=0;fixedWidth=0;size=20;" parent="1" vertex="1">
            <mxGeometry x="540" y="1000" width="80" height="70" as="geometry" />
          </mxCell>
        </object>
        <object label="" heigth="50&#xa;" id="ee28yyPHF1UoalUS08Q_-11">
          <mxCell style="shape=hexagon;perimeter=hexagonPerimeter2;whiteSpace=wrap;html=1;fixedSize=1;perimeterSpacing=0;autosize=1;resizeHeight=0;resizeWidth=0;fixedWidth=0;size=20;" parent="1" vertex="1">
            <mxGeometry x="300" y="930" width="80" height="70" as="geometry" />
          </mxCell>
        </object>
        <object label="" heigth="50&#xa;" id="ee28yyPHF1UoalUS08Q_-12">
          <mxCell style="shape=hexagon;perimeter=hexagonPerimeter2;whiteSpace=wrap;html=1;fixedSize=1;perimeterSpacing=0;autosize=1;resizeHeight=0;resizeWidth=0;fixedWidth=0;size=20;" parent="1" vertex="1">
            <mxGeometry x="300" y="1000" width="80" height="70" as="geometry" />
          </mxCell>
        </object>
        <object label="" heigth="50&#xa;" id="ee28yyPHF1UoalUS08Q_-13">
          <mxCell style="shape=hexagon;perimeter=hexagonPerimeter2;whiteSpace=wrap;html=1;fixedSize=1;perimeterSpacing=0;autosize=1;resizeHeight=0;resizeWidth=0;fixedWidth=0;size=20;" parent="1" vertex="1">
            <mxGeometry x="240" y="965" width="80" height="70" as="geometry" />
          </mxCell>
        </object>
        <object label="" heigth="50&#xa;" id="ee28yyPHF1UoalUS08Q_-14">
          <mxCell style="shape=hexagon;perimeter=hexagonPerimeter2;whiteSpace=wrap;html=1;fixedSize=1;perimeterSpacing=0;autosize=1;resizeHeight=0;resizeWidth=0;fixedWidth=0;size=20;" parent="1" vertex="1">
            <mxGeometry x="600" y="965" width="80" height="70" as="geometry" />
          </mxCell>
        </object>
        <object label="" heigth="50&#xa;" id="ee28yyPHF1UoalUS08Q_-15">
          <mxCell style="shape=hexagon;perimeter=hexagonPerimeter2;whiteSpace=wrap;html=1;fixedSize=1;perimeterSpacing=0;autosize=1;resizeHeight=0;resizeWidth=0;fixedWidth=0;size=20;" parent="1" vertex="1">
            <mxGeometry x="240" y="1035" width="80" height="70" as="geometry" />
          </mxCell>
        </object>
        <object label="" heigth="50&#xa;" id="ee28yyPHF1UoalUS08Q_-16">
          <mxCell style="shape=hexagon;perimeter=hexagonPerimeter2;whiteSpace=wrap;html=1;fixedSize=1;perimeterSpacing=0;autosize=1;resizeHeight=0;resizeWidth=0;fixedWidth=0;size=20;" parent="1" vertex="1">
            <mxGeometry x="240" y="895" width="80" height="70" as="geometry" />
          </mxCell>
        </object>
        <object label="" heigth="50&#xa;" id="ee28yyPHF1UoalUS08Q_-17">
          <mxCell style="shape=hexagon;perimeter=hexagonPerimeter2;whiteSpace=wrap;html=1;fixedSize=1;perimeterSpacing=0;autosize=1;resizeHeight=0;resizeWidth=0;fixedWidth=0;size=20;" parent="1" vertex="1">
            <mxGeometry x="240" y="825" width="80" height="70" as="geometry" />
          </mxCell>
        </object>
        <object label="" heigth="50&#xa;" id="ee28yyPHF1UoalUS08Q_-18">
          <mxCell style="shape=hexagon;perimeter=hexagonPerimeter2;whiteSpace=wrap;html=1;fixedSize=1;perimeterSpacing=0;autosize=1;resizeHeight=0;resizeWidth=0;fixedWidth=0;size=20;" parent="1" vertex="1">
            <mxGeometry x="180" y="860" width="80" height="70" as="geometry" />
          </mxCell>
        </object>
        <object label="" heigth="50&#xa;" id="ee28yyPHF1UoalUS08Q_-19">
          <mxCell style="shape=hexagon;perimeter=hexagonPerimeter2;whiteSpace=wrap;html=1;fixedSize=1;perimeterSpacing=0;autosize=1;resizeHeight=0;resizeWidth=0;fixedWidth=0;size=20;" parent="1" vertex="1">
            <mxGeometry x="180" y="790" width="80" height="70" as="geometry" />
          </mxCell>
        </object>
        <object label="" heigth="50&#xa;" id="ee28yyPHF1UoalUS08Q_-20">
          <mxCell style="shape=hexagon;perimeter=hexagonPerimeter2;whiteSpace=wrap;html=1;fixedSize=1;perimeterSpacing=0;autosize=1;resizeHeight=0;resizeWidth=0;fixedWidth=0;size=20;" parent="1" vertex="1">
            <mxGeometry x="180" y="720" width="80" height="70" as="geometry" />
          </mxCell>
        </object>
        <object label="" heigth="50&#xa;" id="ee28yyPHF1UoalUS08Q_-21">
          <mxCell style="shape=hexagon;perimeter=hexagonPerimeter2;whiteSpace=wrap;html=1;fixedSize=1;perimeterSpacing=0;autosize=1;resizeHeight=0;resizeWidth=0;fixedWidth=0;size=20;" parent="1" vertex="1">
            <mxGeometry x="120" y="755" width="80" height="70" as="geometry" />
          </mxCell>
        </object>
        <object label="" heigth="50&#xa;" id="ee28yyPHF1UoalUS08Q_-22">
          <mxCell style="shape=hexagon;perimeter=hexagonPerimeter2;whiteSpace=wrap;html=1;fixedSize=1;perimeterSpacing=0;autosize=1;resizeHeight=0;resizeWidth=0;fixedWidth=0;size=20;" parent="1" vertex="1">
            <mxGeometry x="120" y="685" width="80" height="70" as="geometry" />
          </mxCell>
        </object>
        <object label="" heigth="50&#xa;" id="ee28yyPHF1UoalUS08Q_-23">
          <mxCell style="shape=hexagon;perimeter=hexagonPerimeter2;whiteSpace=wrap;html=1;fixedSize=1;perimeterSpacing=0;autosize=1;resizeHeight=0;resizeWidth=0;fixedWidth=0;size=20;" parent="1" vertex="1">
            <mxGeometry x="120" y="615" width="80" height="70" as="geometry" />
          </mxCell>
        </object>
        <object label="" heigth="50&#xa;" id="ee28yyPHF1UoalUS08Q_-24">
          <mxCell style="shape=hexagon;perimeter=hexagonPerimeter2;whiteSpace=wrap;html=1;fixedSize=1;perimeterSpacing=0;autosize=1;resizeHeight=0;resizeWidth=0;fixedWidth=0;size=20;" parent="1" vertex="1">
            <mxGeometry x="60" y="650" width="80" height="70" as="geometry" />
          </mxCell>
        </object>
        <object label="" heigth="50&#xa;" id="ee28yyPHF1UoalUS08Q_-25">
          <mxCell style="shape=hexagon;perimeter=hexagonPerimeter2;whiteSpace=wrap;html=1;fixedSize=1;perimeterSpacing=0;autosize=1;resizeHeight=0;resizeWidth=0;fixedWidth=0;size=20;" parent="1" vertex="1">
            <mxGeometry x="60" y="580" width="80" height="70" as="geometry" />
          </mxCell>
        </object>
        <object label="" heigth="50&#xa;" id="ee28yyPHF1UoalUS08Q_-26">
          <mxCell style="shape=hexagon;perimeter=hexagonPerimeter2;whiteSpace=wrap;html=1;fixedSize=1;perimeterSpacing=0;autosize=1;resizeHeight=0;resizeWidth=0;fixedWidth=0;size=20;" parent="1" vertex="1">
            <mxGeometry y="615" width="80" height="70" as="geometry" />
          </mxCell>
        </object>
        <object label="" heigth="50&#xa;" id="ee28yyPHF1UoalUS08Q_-27">
          <mxCell style="shape=hexagon;perimeter=hexagonPerimeter2;whiteSpace=wrap;html=1;fixedSize=1;perimeterSpacing=0;autosize=1;resizeHeight=0;resizeWidth=0;fixedWidth=0;size=20;" parent="1" vertex="1">
            <mxGeometry x="120" y="545" width="80" height="70" as="geometry" />
          </mxCell>
        </object>
        <object label="" heigth="50&#xa;" id="ee28yyPHF1UoalUS08Q_-51">
          <mxCell style="shape=hexagon;perimeter=hexagonPerimeter2;whiteSpace=wrap;html=1;fixedSize=1;perimeterSpacing=0;autosize=1;resizeHeight=0;resizeWidth=0;fixedWidth=0;size=20;" parent="1" vertex="1">
            <mxGeometry x="120" y="475" width="80" height="70" as="geometry" />
          </mxCell>
        </object>
        <object label="" heigth="50&#xa;" id="ee28yyPHF1UoalUS08Q_-52">
          <mxCell style="shape=hexagon;perimeter=hexagonPerimeter2;whiteSpace=wrap;html=1;fixedSize=1;perimeterSpacing=0;autosize=1;resizeHeight=0;resizeWidth=0;fixedWidth=0;size=20;" parent="1" vertex="1">
            <mxGeometry x="180" y="510" width="80" height="70" as="geometry" />
          </mxCell>
        </object>
        <object label="" heigth="50&#xa;" id="ee28yyPHF1UoalUS08Q_-53">
          <mxCell style="shape=hexagon;perimeter=hexagonPerimeter2;whiteSpace=wrap;html=1;fixedSize=1;perimeterSpacing=0;autosize=1;resizeHeight=0;resizeWidth=0;fixedWidth=0;size=20;" parent="1" vertex="1">
            <mxGeometry x="180" y="440" width="80" height="70" as="geometry" />
          </mxCell>
        </object>
        <object label="" heigth="50&#xa;" id="ee28yyPHF1UoalUS08Q_-54">
          <mxCell style="shape=hexagon;perimeter=hexagonPerimeter2;whiteSpace=wrap;html=1;fixedSize=1;perimeterSpacing=0;autosize=1;resizeHeight=0;resizeWidth=0;fixedWidth=0;size=20;" parent="1" vertex="1">
            <mxGeometry x="180" y="370" width="80" height="70" as="geometry" />
          </mxCell>
        </object>
        <object label="" heigth="50&#xa;" id="ee28yyPHF1UoalUS08Q_-55">
          <mxCell style="shape=hexagon;perimeter=hexagonPerimeter2;whiteSpace=wrap;html=1;fixedSize=1;perimeterSpacing=0;autosize=1;resizeHeight=0;resizeWidth=0;fixedWidth=0;size=20;" parent="1" vertex="1">
            <mxGeometry x="240" y="405" width="80" height="70" as="geometry" />
          </mxCell>
        </object>
        <object label="" heigth="50&#xa;" id="ee28yyPHF1UoalUS08Q_-56">
          <mxCell style="shape=hexagon;perimeter=hexagonPerimeter2;whiteSpace=wrap;html=1;fixedSize=1;perimeterSpacing=0;autosize=1;resizeHeight=0;resizeWidth=0;fixedWidth=0;size=20;" parent="1" vertex="1">
            <mxGeometry x="240" y="335" width="80" height="70" as="geometry" />
          </mxCell>
        </object>
        <object label="" heigth="50&#xa;" id="ee28yyPHF1UoalUS08Q_-57">
          <mxCell style="shape=hexagon;perimeter=hexagonPerimeter2;whiteSpace=wrap;html=1;fixedSize=1;perimeterSpacing=0;autosize=1;resizeHeight=0;resizeWidth=0;fixedWidth=0;size=20;" parent="1" vertex="1">
            <mxGeometry x="240" y="265" width="80" height="70" as="geometry" />
          </mxCell>
        </object>
        <object label="" heigth="50&#xa;" id="ee28yyPHF1UoalUS08Q_-58">
          <mxCell style="shape=hexagon;perimeter=hexagonPerimeter2;whiteSpace=wrap;html=1;fixedSize=1;perimeterSpacing=0;autosize=1;resizeHeight=0;resizeWidth=0;fixedWidth=0;size=20;" parent="1" vertex="1">
            <mxGeometry x="300" y="300" width="80" height="70" as="geometry" />
          </mxCell>
        </object>
        <object label="" heigth="50&#xa;" id="ee28yyPHF1UoalUS08Q_-59">
          <mxCell style="shape=hexagon;perimeter=hexagonPerimeter2;whiteSpace=wrap;html=1;fixedSize=1;perimeterSpacing=0;autosize=1;resizeHeight=0;resizeWidth=0;fixedWidth=0;size=20;" parent="1" vertex="1">
            <mxGeometry x="240" y="195" width="80" height="70" as="geometry" />
          </mxCell>
        </object>
        <object label="" heigth="50&#xa;" id="ee28yyPHF1UoalUS08Q_-60">
          <mxCell style="shape=hexagon;perimeter=hexagonPerimeter2;whiteSpace=wrap;html=1;fixedSize=1;perimeterSpacing=0;autosize=1;resizeHeight=0;resizeWidth=0;fixedWidth=0;size=20;" parent="1" vertex="1">
            <mxGeometry x="300" y="230" width="80" height="70" as="geometry" />
          </mxCell>
        </object>
        <object label="" heigth="50&#xa;" id="ee28yyPHF1UoalUS08Q_-61">
          <mxCell style="shape=hexagon;perimeter=hexagonPerimeter2;whiteSpace=wrap;html=1;fixedSize=1;perimeterSpacing=0;autosize=1;resizeHeight=0;resizeWidth=0;fixedWidth=0;size=20;" parent="1" vertex="1">
            <mxGeometry x="360" y="265" width="80" height="70" as="geometry" />
          </mxCell>
        </object>
        <object label="" heigth="50&#xa;" id="ee28yyPHF1UoalUS08Q_-62">
          <mxCell style="shape=hexagon;perimeter=hexagonPerimeter2;whiteSpace=wrap;html=1;fixedSize=1;perimeterSpacing=0;autosize=1;resizeHeight=0;resizeWidth=0;fixedWidth=0;size=20;" parent="1" vertex="1">
            <mxGeometry x="420" y="300" width="80" height="70" as="geometry" />
          </mxCell>
        </object>
        <object label="" heigth="50&#xa;" id="ee28yyPHF1UoalUS08Q_-63">
          <mxCell style="shape=hexagon;perimeter=hexagonPerimeter2;whiteSpace=wrap;html=1;fixedSize=1;perimeterSpacing=0;autosize=1;resizeHeight=0;resizeWidth=0;fixedWidth=0;size=20;" parent="1" vertex="1">
            <mxGeometry x="420" y="230" width="80" height="70" as="geometry" />
          </mxCell>
        </object>
        <object label="" heigth="50&#xa;" id="ee28yyPHF1UoalUS08Q_-64">
          <mxCell style="shape=hexagon;perimeter=hexagonPerimeter2;whiteSpace=wrap;html=1;fixedSize=1;perimeterSpacing=0;autosize=1;resizeHeight=0;resizeWidth=0;fixedWidth=0;size=20;" parent="1" vertex="1">
            <mxGeometry x="480" y="265" width="80" height="70" as="geometry" />
          </mxCell>
        </object>
        <object label="" heigth="50&#xa;" id="ee28yyPHF1UoalUS08Q_-65">
          <mxCell style="shape=hexagon;perimeter=hexagonPerimeter2;whiteSpace=wrap;html=1;fixedSize=1;perimeterSpacing=0;autosize=1;resizeHeight=0;resizeWidth=0;fixedWidth=0;size=20;" parent="1" vertex="1">
            <mxGeometry x="540" y="300" width="80" height="70" as="geometry" />
          </mxCell>
        </object>
        <object label="" heigth="50&#xa;" id="ee28yyPHF1UoalUS08Q_-66">
          <mxCell style="shape=hexagon;perimeter=hexagonPerimeter2;whiteSpace=wrap;html=1;fixedSize=1;perimeterSpacing=0;autosize=1;resizeHeight=0;resizeWidth=0;fixedWidth=0;size=20;" parent="1" vertex="1">
            <mxGeometry x="540" y="230" width="80" height="70" as="geometry" />
          </mxCell>
        </object>
        <object label="" heigth="50&#xa;" id="ee28yyPHF1UoalUS08Q_-67">
          <mxCell style="shape=hexagon;perimeter=hexagonPerimeter2;whiteSpace=wrap;html=1;fixedSize=1;perimeterSpacing=0;autosize=1;resizeHeight=0;resizeWidth=0;fixedWidth=0;size=20;" parent="1" vertex="1">
            <mxGeometry x="600" y="265" width="80" height="70" as="geometry" />
          </mxCell>
        </object>
        <object label="" heigth="50&#xa;" id="ee28yyPHF1UoalUS08Q_-68">
          <mxCell style="shape=hexagon;perimeter=hexagonPerimeter2;whiteSpace=wrap;html=1;fixedSize=1;perimeterSpacing=0;autosize=1;resizeHeight=0;resizeWidth=0;fixedWidth=0;size=20;" parent="1" vertex="1">
            <mxGeometry x="660" y="230" width="80" height="70" as="geometry" />
          </mxCell>
        </object>
        <object label="" heigth="50&#xa;" id="ee28yyPHF1UoalUS08Q_-69">
          <mxCell style="shape=hexagon;perimeter=hexagonPerimeter2;whiteSpace=wrap;html=1;fixedSize=1;perimeterSpacing=0;autosize=1;resizeHeight=0;resizeWidth=0;fixedWidth=0;size=20;" parent="1" vertex="1">
            <mxGeometry x="720" y="195" width="80" height="70" as="geometry" />
          </mxCell>
        </object>
        <object label="" heigth="50&#xa;" id="ee28yyPHF1UoalUS08Q_-70">
          <mxCell style="shape=hexagon;perimeter=hexagonPerimeter2;whiteSpace=wrap;html=1;fixedSize=1;perimeterSpacing=0;autosize=1;resizeHeight=0;resizeWidth=0;fixedWidth=0;size=20;" parent="1" vertex="1">
            <mxGeometry x="720" y="265" width="80" height="70" as="geometry" />
          </mxCell>
        </object>
        <object label="" heigth="50&#xa;" id="ee28yyPHF1UoalUS08Q_-71">
          <mxCell style="shape=hexagon;perimeter=hexagonPerimeter2;whiteSpace=wrap;html=1;fixedSize=1;perimeterSpacing=0;autosize=1;resizeHeight=0;resizeWidth=0;fixedWidth=0;size=20;" parent="1" vertex="1">
            <mxGeometry x="660" y="300" width="80" height="70" as="geometry" />
          </mxCell>
        </object>
        <object label="" heigth="50&#xa;" id="ee28yyPHF1UoalUS08Q_-72">
          <mxCell style="shape=hexagon;perimeter=hexagonPerimeter2;whiteSpace=wrap;html=1;fixedSize=1;perimeterSpacing=0;autosize=1;resizeHeight=0;resizeWidth=0;fixedWidth=0;size=20;" parent="1" vertex="1">
            <mxGeometry x="840" y="475" width="80" height="70" as="geometry" />
          </mxCell>
        </object>
        <object label="" heigth="50&#xa;" id="ee28yyPHF1UoalUS08Q_-73">
          <mxCell style="shape=hexagon;perimeter=hexagonPerimeter2;whiteSpace=wrap;html=1;fixedSize=1;perimeterSpacing=0;autosize=1;resizeHeight=0;resizeWidth=0;fixedWidth=0;size=20;" parent="1" vertex="1">
            <mxGeometry x="780" y="510" width="80" height="70" as="geometry" />
          </mxCell>
        </object>
        <object label="" heigth="50&#xa;" id="ee28yyPHF1UoalUS08Q_-74">
          <mxCell style="shape=hexagon;perimeter=hexagonPerimeter2;whiteSpace=wrap;html=1;fixedSize=1;perimeterSpacing=0;autosize=1;resizeHeight=0;resizeWidth=0;fixedWidth=0;size=20;" parent="1" vertex="1">
            <mxGeometry x="780" y="440" width="80" height="70" as="geometry" />
          </mxCell>
        </object>
        <object label="" heigth="50&#xa;" id="ee28yyPHF1UoalUS08Q_-75">
          <mxCell style="shape=hexagon;perimeter=hexagonPerimeter2;whiteSpace=wrap;html=1;fixedSize=1;perimeterSpacing=0;autosize=1;resizeHeight=0;resizeWidth=0;fixedWidth=0;size=20;" parent="1" vertex="1">
            <mxGeometry x="780" y="370" width="80" height="70" as="geometry" />
          </mxCell>
        </object>
        <object label="" heigth="50&#xa;" id="ee28yyPHF1UoalUS08Q_-76">
          <mxCell style="shape=hexagon;perimeter=hexagonPerimeter2;whiteSpace=wrap;html=1;fixedSize=1;perimeterSpacing=0;autosize=1;resizeHeight=0;resizeWidth=0;fixedWidth=0;size=20;" parent="1" vertex="1">
            <mxGeometry x="720" y="405" width="80" height="70" as="geometry" />
          </mxCell>
        </object>
        <object label="" heigth="50&#xa;" id="ee28yyPHF1UoalUS08Q_-77">
          <mxCell style="shape=hexagon;perimeter=hexagonPerimeter2;whiteSpace=wrap;html=1;fixedSize=1;perimeterSpacing=0;autosize=1;resizeHeight=0;resizeWidth=0;fixedWidth=0;size=20;" parent="1" vertex="1">
            <mxGeometry x="720" y="335" width="80" height="70" as="geometry" />
          </mxCell>
        </object>
        <object label="" heigth="50&#xa;" id="ee28yyPHF1UoalUS08Q_-78">
          <mxCell style="shape=hexagon;perimeter=hexagonPerimeter2;whiteSpace=wrap;html=1;fixedSize=1;perimeterSpacing=0;autosize=1;resizeHeight=0;resizeWidth=0;fixedWidth=0;size=20;" parent="1" vertex="1">
            <mxGeometry x="840" y="545" width="80" height="70" as="geometry" />
          </mxCell>
        </object>
        <object label="" heigth="50&#xa;" id="ee28yyPHF1UoalUS08Q_-79">
          <mxCell style="shape=hexagon;perimeter=hexagonPerimeter2;whiteSpace=wrap;html=1;fixedSize=1;perimeterSpacing=0;autosize=1;resizeHeight=0;resizeWidth=0;fixedWidth=0;size=20;" parent="1" vertex="1">
            <mxGeometry x="840" y="615" width="80" height="70" as="geometry" />
          </mxCell>
        </object>
        <object label="" heigth="50&#xa;" id="ee28yyPHF1UoalUS08Q_-80">
          <mxCell style="shape=hexagon;perimeter=hexagonPerimeter2;whiteSpace=wrap;html=1;fixedSize=1;perimeterSpacing=0;autosize=1;resizeHeight=0;resizeWidth=0;fixedWidth=0;size=20;" parent="1" vertex="1">
            <mxGeometry x="900" y="580" width="80" height="70" as="geometry" />
          </mxCell>
        </object>
        <object label="" heigth="50&#xa;" id="ee28yyPHF1UoalUS08Q_-81">
          <mxCell style="shape=hexagon;perimeter=hexagonPerimeter2;whiteSpace=wrap;html=1;fixedSize=1;perimeterSpacing=0;autosize=1;resizeHeight=0;resizeWidth=0;fixedWidth=0;size=20;" parent="1" vertex="1">
            <mxGeometry x="900" y="650" width="80" height="70" as="geometry" />
          </mxCell>
        </object>
        <object label="" heigth="50&#xa;" id="ee28yyPHF1UoalUS08Q_-82">
          <mxCell style="shape=hexagon;perimeter=hexagonPerimeter2;whiteSpace=wrap;html=1;fixedSize=1;perimeterSpacing=0;autosize=1;resizeHeight=0;resizeWidth=0;fixedWidth=0;size=20;" parent="1" vertex="1">
            <mxGeometry x="960" y="615" width="80" height="70" as="geometry" />
          </mxCell>
        </object>
        <object label="" heigth="50&#xa;" id="ee28yyPHF1UoalUS08Q_-83">
          <mxCell style="shape=hexagon;perimeter=hexagonPerimeter2;whiteSpace=wrap;html=1;fixedSize=1;perimeterSpacing=0;autosize=1;resizeHeight=0;resizeWidth=0;fixedWidth=0;size=20;" parent="1" vertex="1">
            <mxGeometry x="840" y="685" width="80" height="70" as="geometry" />
          </mxCell>
        </object>
        <object label="" heigth="50&#xa;" id="ee28yyPHF1UoalUS08Q_-84">
          <mxCell style="shape=hexagon;perimeter=hexagonPerimeter2;whiteSpace=wrap;html=1;fixedSize=1;perimeterSpacing=0;autosize=1;resizeHeight=0;resizeWidth=0;fixedWidth=0;size=20;" parent="1" vertex="1">
            <mxGeometry x="780" y="720" width="80" height="70" as="geometry" />
          </mxCell>
        </object>
        <object label="" heigth="50&#xa;" id="ee28yyPHF1UoalUS08Q_-85">
          <mxCell style="shape=hexagon;perimeter=hexagonPerimeter2;whiteSpace=wrap;html=1;fixedSize=1;perimeterSpacing=0;autosize=1;resizeHeight=0;resizeWidth=0;fixedWidth=0;size=20;" parent="1" vertex="1">
            <mxGeometry x="840" y="755" width="80" height="70" as="geometry" />
          </mxCell>
        </object>
        <object label="" heigth="50&#xa;" id="ee28yyPHF1UoalUS08Q_-86">
          <mxCell style="shape=hexagon;perimeter=hexagonPerimeter2;whiteSpace=wrap;html=1;fixedSize=1;perimeterSpacing=0;autosize=1;resizeHeight=0;resizeWidth=0;fixedWidth=0;size=20;" parent="1" vertex="1">
            <mxGeometry x="780" y="790" width="80" height="70" as="geometry" />
          </mxCell>
        </object>
        <object label="" heigth="50&#xa;" id="ee28yyPHF1UoalUS08Q_-87">
          <mxCell style="shape=hexagon;perimeter=hexagonPerimeter2;whiteSpace=wrap;html=1;fixedSize=1;perimeterSpacing=0;autosize=1;resizeHeight=0;resizeWidth=0;fixedWidth=0;size=20;" parent="1" vertex="1">
            <mxGeometry x="720" y="825" width="80" height="70" as="geometry" />
          </mxCell>
        </object>
        <object label="" heigth="50&#xa;" id="ee28yyPHF1UoalUS08Q_-88">
          <mxCell style="shape=hexagon;perimeter=hexagonPerimeter2;whiteSpace=wrap;html=1;fixedSize=1;perimeterSpacing=0;autosize=1;resizeHeight=0;resizeWidth=0;fixedWidth=0;size=20;" parent="1" vertex="1">
            <mxGeometry x="780" y="860" width="80" height="70" as="geometry" />
          </mxCell>
        </object>
        <object label="" heigth="50&#xa;" id="ee28yyPHF1UoalUS08Q_-89">
          <mxCell style="shape=hexagon;perimeter=hexagonPerimeter2;whiteSpace=wrap;html=1;fixedSize=1;perimeterSpacing=0;autosize=1;resizeHeight=0;resizeWidth=0;fixedWidth=0;size=20;" parent="1" vertex="1">
            <mxGeometry x="720" y="895" width="80" height="70" as="geometry" />
          </mxCell>
        </object>
        <object label="" heigth="50&#xa;" id="ee28yyPHF1UoalUS08Q_-90">
          <mxCell style="shape=hexagon;perimeter=hexagonPerimeter2;whiteSpace=wrap;html=1;fixedSize=1;perimeterSpacing=0;autosize=1;resizeHeight=0;resizeWidth=0;fixedWidth=0;size=20;" parent="1" vertex="1">
            <mxGeometry x="660" y="930" width="80" height="70" as="geometry" />
          </mxCell>
        </object>
        <object label="" heigth="50&#xa;" id="ee28yyPHF1UoalUS08Q_-91">
          <mxCell style="shape=hexagon;perimeter=hexagonPerimeter2;whiteSpace=wrap;html=1;fixedSize=1;perimeterSpacing=0;autosize=1;resizeHeight=0;resizeWidth=0;fixedWidth=0;size=20;" parent="1" vertex="1">
            <mxGeometry x="720" y="965" width="80" height="70" as="geometry" />
          </mxCell>
        </object>
        <object label="" heigth="50&#xa;" id="ee28yyPHF1UoalUS08Q_-92">
          <mxCell style="shape=hexagon;perimeter=hexagonPerimeter2;whiteSpace=wrap;html=1;fixedSize=1;perimeterSpacing=0;autosize=1;resizeHeight=0;resizeWidth=0;fixedWidth=0;size=20;" parent="1" vertex="1">
            <mxGeometry x="660" y="1000" width="80" height="70" as="geometry" />
          </mxCell>
        </object>
        <object label="" heigth="50&#xa;" id="ee28yyPHF1UoalUS08Q_-93">
          <mxCell style="shape=hexagon;perimeter=hexagonPerimeter2;whiteSpace=wrap;html=1;fixedSize=1;perimeterSpacing=0;autosize=1;resizeHeight=0;resizeWidth=0;fixedWidth=0;size=20;" parent="1" vertex="1">
            <mxGeometry x="720" y="1035" width="80" height="70" as="geometry" />
          </mxCell>
        </object>
        <object label="" heigth="50&#xa;" id="ee28yyPHF1UoalUS08Q_-94">
          <mxCell style="shape=hexagon;perimeter=hexagonPerimeter2;whiteSpace=wrap;html=1;fixedSize=1;perimeterSpacing=0;autosize=1;resizeHeight=0;resizeWidth=0;fixedWidth=0;size=200;shadow=1;fillColor=#008a00;fontColor=#ffffff;strokeColor=#005700;opacity=50;" parent="1" vertex="1">
            <mxGeometry x="120" y="300" width="800" height="700" as="geometry" />
          </mxCell>
        </object>
        <object label="" heigth="50&#xa;" id="ee28yyPHF1UoalUS08Q_-95">
          <mxCell style="shape=hexagon;perimeter=hexagonPerimeter2;whiteSpace=wrap;html=1;fixedSize=1;perimeterSpacing=0;autosize=1;resizeHeight=0;resizeWidth=0;fixedWidth=0;size=160;shadow=1;fillColor=#a20025;fontColor=#ffffff;strokeColor=#6F0000;opacity=50;" parent="1" vertex="1">
            <mxGeometry x="200" y="370" width="640" height="560" as="geometry" />
          </mxCell>
        </object>
        <object label="" heigth="50&#xa;" id="ee28yyPHF1UoalUS08Q_-96">
          <mxCell style="shape=hexagon;perimeter=hexagonPerimeter2;whiteSpace=wrap;html=1;fixedSize=1;perimeterSpacing=0;autosize=1;resizeHeight=0;resizeWidth=0;fixedWidth=0;size=200;shadow=1;fillColor=#008a00;fontColor=#ffffff;strokeColor=#005700;opacity=50;" parent="1" vertex="1">
            <mxGeometry x="720" y="-50" width="800" height="700" as="geometry" />
          </mxCell>
        </object>
        <object label="" heigth="50&#xa;" id="ee28yyPHF1UoalUS08Q_-97">
          <mxCell style="shape=hexagon;perimeter=hexagonPerimeter2;whiteSpace=wrap;html=1;fixedSize=1;perimeterSpacing=0;autosize=1;resizeHeight=0;resizeWidth=0;fixedWidth=0;size=160;shadow=1;fillColor=#a20025;fontColor=#ffffff;strokeColor=#6F0000;opacity=50;" parent="1" vertex="1">
            <mxGeometry x="800" y="20" width="640" height="560" as="geometry" />
          </mxCell>
        </object>
        <object label="" heigth="50&#xa;" id="ee28yyPHF1UoalUS08Q_-98">
          <mxCell style="shape=hexagon;perimeter=hexagonPerimeter2;whiteSpace=wrap;html=1;fixedSize=1;perimeterSpacing=0;autosize=1;resizeHeight=0;resizeWidth=0;fixedWidth=0;size=200;shadow=1;fillColor=#008a00;fontColor=#ffffff;strokeColor=#005700;opacity=50;" parent="1" vertex="1">
            <mxGeometry x="720" y="650" width="800" height="700" as="geometry" />
          </mxCell>
        </object>
        <object label="" heigth="50&#xa;" id="ee28yyPHF1UoalUS08Q_-99">
          <mxCell style="shape=hexagon;perimeter=hexagonPerimeter2;whiteSpace=wrap;html=1;fixedSize=1;perimeterSpacing=0;autosize=1;resizeHeight=0;resizeWidth=0;fixedWidth=0;size=160;shadow=1;fillColor=#a20025;fontColor=#ffffff;strokeColor=#6F0000;opacity=50;" parent="1" vertex="1">
            <mxGeometry x="800" y="720" width="640" height="560" as="geometry" />
          </mxCell>
        </object>
        <object label="" heigth="50&#xa;" id="ee28yyPHF1UoalUS08Q_-100">
          <mxCell style="shape=hexagon;perimeter=hexagonPerimeter2;whiteSpace=wrap;html=1;fixedSize=1;perimeterSpacing=0;autosize=1;resizeHeight=0;resizeWidth=0;fixedWidth=0;size=200;shadow=1;fillColor=#008a00;fontColor=#ffffff;strokeColor=#005700;opacity=50;" parent="1" vertex="1">
            <mxGeometry x="120" y="-400" width="800" height="700" as="geometry" />
          </mxCell>
        </object>
        <object label="" heigth="50&#xa;" id="ee28yyPHF1UoalUS08Q_-101">
          <mxCell style="shape=hexagon;perimeter=hexagonPerimeter2;whiteSpace=wrap;html=1;fixedSize=1;perimeterSpacing=0;autosize=1;resizeHeight=0;resizeWidth=0;fixedWidth=0;size=160;shadow=1;fillColor=#a20025;fontColor=#ffffff;strokeColor=#6F0000;opacity=50;" parent="1" vertex="1">
            <mxGeometry x="200" y="-330" width="640" height="560" as="geometry" />
          </mxCell>
        </object>
        <object label="" heigth="50&#xa;" id="ee28yyPHF1UoalUS08Q_-108">
          <mxCell style="shape=hexagon;perimeter=hexagonPerimeter2;whiteSpace=wrap;html=1;fixedSize=1;perimeterSpacing=0;autosize=1;resizeHeight=0;resizeWidth=0;fixedWidth=0;size=20;" parent="1" vertex="1">
            <mxGeometry x="900" y="-50" width="80" height="70" as="geometry" />
          </mxCell>
        </object>
        <object label="" heigth="50&#xa;" id="ee28yyPHF1UoalUS08Q_-110">
          <mxCell style="shape=hexagon;perimeter=hexagonPerimeter2;whiteSpace=wrap;html=1;fixedSize=1;perimeterSpacing=0;autosize=1;resizeHeight=0;resizeWidth=0;fixedWidth=0;size=20;" parent="1" vertex="1">
            <mxGeometry x="840" y="-85" width="80" height="70" as="geometry" />
          </mxCell>
        </object>
        <object label="" heigth="50&#xa;" id="ee28yyPHF1UoalUS08Q_-113">
          <mxCell style="shape=hexagon;perimeter=hexagonPerimeter2;whiteSpace=wrap;html=1;fixedSize=1;perimeterSpacing=0;autosize=1;resizeHeight=0;resizeWidth=0;fixedWidth=0;size=20;" parent="1" vertex="1">
            <mxGeometry x="1020" y="-50" width="80" height="70" as="geometry" />
          </mxCell>
        </object>
        <object label="" heigth="50&#xa;" id="ee28yyPHF1UoalUS08Q_-115">
          <mxCell style="shape=hexagon;perimeter=hexagonPerimeter2;whiteSpace=wrap;html=1;fixedSize=1;perimeterSpacing=0;autosize=1;resizeHeight=0;resizeWidth=0;fixedWidth=0;size=20;" parent="1" vertex="1">
            <mxGeometry x="1140" y="-50" width="80" height="70" as="geometry" />
          </mxCell>
        </object>
        <object label="" heigth="50&#xa;" id="ee28yyPHF1UoalUS08Q_-116">
          <mxCell style="shape=hexagon;perimeter=hexagonPerimeter2;whiteSpace=wrap;html=1;fixedSize=1;perimeterSpacing=0;autosize=1;resizeHeight=0;resizeWidth=0;fixedWidth=0;size=20;" parent="1" vertex="1">
            <mxGeometry x="1260" y="-50" width="80" height="70" as="geometry" />
          </mxCell>
        </object>
        <object label="" heigth="50&#xa;" id="ee28yyPHF1UoalUS08Q_-117">
          <mxCell style="shape=hexagon;perimeter=hexagonPerimeter2;whiteSpace=wrap;html=1;fixedSize=1;perimeterSpacing=0;autosize=1;resizeHeight=0;resizeWidth=0;fixedWidth=0;size=20;" parent="1" vertex="1">
            <mxGeometry x="1440" y="265" width="80" height="70" as="geometry" />
          </mxCell>
        </object>
        <object label="" heigth="50&#xa;" id="ee28yyPHF1UoalUS08Q_-118">
          <mxCell style="shape=hexagon;perimeter=hexagonPerimeter2;whiteSpace=wrap;html=1;fixedSize=1;perimeterSpacing=0;autosize=1;resizeHeight=0;resizeWidth=0;fixedWidth=0;size=20;" parent="1" vertex="1">
            <mxGeometry x="1320" y="55" width="80" height="70" as="geometry" />
          </mxCell>
        </object>
        <object label="" heigth="50&#xa;" id="ee28yyPHF1UoalUS08Q_-119">
          <mxCell style="shape=hexagon;perimeter=hexagonPerimeter2;whiteSpace=wrap;html=1;fixedSize=1;perimeterSpacing=0;autosize=1;resizeHeight=0;resizeWidth=0;fixedWidth=0;size=20;" parent="1" vertex="1">
            <mxGeometry x="1380" y="160" width="80" height="70" as="geometry" />
          </mxCell>
        </object>
        <object label="" heigth="50&#xa;" id="ee28yyPHF1UoalUS08Q_-121">
          <mxCell style="shape=hexagon;perimeter=hexagonPerimeter2;whiteSpace=wrap;html=1;fixedSize=1;perimeterSpacing=0;autosize=1;resizeHeight=0;resizeWidth=0;fixedWidth=0;size=20;" parent="1" vertex="1">
            <mxGeometry x="1080" y="265" width="80" height="70" as="geometry" />
          </mxCell>
        </object>
        <object label="" heigth="50&#xa;" id="ee28yyPHF1UoalUS08Q_-122">
          <mxCell style="shape=hexagon;perimeter=hexagonPerimeter2;whiteSpace=wrap;html=1;fixedSize=1;perimeterSpacing=0;autosize=1;resizeHeight=0;resizeWidth=0;fixedWidth=0;size=20;" parent="1" vertex="1">
            <mxGeometry x="1140" y="300" width="80" height="70" as="geometry" />
          </mxCell>
        </object>
        <object label="" heigth="50&#xa;" id="ee28yyPHF1UoalUS08Q_-123">
          <mxCell style="shape=hexagon;perimeter=hexagonPerimeter2;whiteSpace=wrap;html=1;fixedSize=1;perimeterSpacing=0;autosize=1;resizeHeight=0;resizeWidth=0;fixedWidth=0;size=20;" parent="1" vertex="1">
            <mxGeometry x="1140" y="230" width="80" height="70" as="geometry" />
          </mxCell>
        </object>
        <object label="" heigth="50&#xa;" id="ee28yyPHF1UoalUS08Q_-124">
          <mxCell style="shape=hexagon;perimeter=hexagonPerimeter2;whiteSpace=wrap;html=1;fixedSize=1;perimeterSpacing=0;autosize=1;resizeHeight=0;resizeWidth=0;fixedWidth=0;size=20;" parent="1" vertex="1">
            <mxGeometry x="1200" y="195" width="80" height="70" as="geometry" />
          </mxCell>
        </object>
        <object label="" heigth="50&#xa;" id="ee28yyPHF1UoalUS08Q_-125">
          <mxCell style="shape=hexagon;perimeter=hexagonPerimeter2;whiteSpace=wrap;html=1;fixedSize=1;perimeterSpacing=0;autosize=1;resizeHeight=0;resizeWidth=0;fixedWidth=0;size=20;" parent="1" vertex="1">
            <mxGeometry x="1140" y="160" width="80" height="70" as="geometry" />
          </mxCell>
        </object>
        <object label="" heigth="50&#xa;" id="ee28yyPHF1UoalUS08Q_-126">
          <mxCell style="shape=hexagon;perimeter=hexagonPerimeter2;whiteSpace=wrap;html=1;fixedSize=1;perimeterSpacing=0;autosize=1;resizeHeight=0;resizeWidth=0;fixedWidth=0;size=20;" parent="1" vertex="1">
            <mxGeometry x="1080" y="195" width="80" height="70" as="geometry" />
          </mxCell>
        </object>
        <object label="" heigth="50&#xa;" id="ee28yyPHF1UoalUS08Q_-127">
          <mxCell style="shape=hexagon;perimeter=hexagonPerimeter2;whiteSpace=wrap;html=1;fixedSize=1;perimeterSpacing=0;autosize=1;resizeHeight=0;resizeWidth=0;fixedWidth=0;size=20;" parent="1" vertex="1">
            <mxGeometry x="1020" y="230" width="80" height="70" as="geometry" />
          </mxCell>
        </object>
        <object label="" heigth="50&#xa;" id="ee28yyPHF1UoalUS08Q_-128">
          <mxCell style="shape=hexagon;perimeter=hexagonPerimeter2;whiteSpace=wrap;html=1;fixedSize=1;perimeterSpacing=0;autosize=1;resizeHeight=0;resizeWidth=0;fixedWidth=0;size=20;" parent="1" vertex="1">
            <mxGeometry x="1020" y="300" width="80" height="70" as="geometry" />
          </mxCell>
        </object>
        <object label="" heigth="50&#xa;" id="ee28yyPHF1UoalUS08Q_-129">
          <mxCell style="shape=hexagon;perimeter=hexagonPerimeter2;whiteSpace=wrap;html=1;fixedSize=1;perimeterSpacing=0;autosize=1;resizeHeight=0;resizeWidth=0;fixedWidth=0;size=20;" parent="1" vertex="1">
            <mxGeometry x="1080" y="335" width="80" height="70" as="geometry" />
          </mxCell>
        </object>
        <object label="" heigth="50&#xa;" id="ee28yyPHF1UoalUS08Q_-130">
          <mxCell style="shape=hexagon;perimeter=hexagonPerimeter2;whiteSpace=wrap;html=1;fixedSize=1;perimeterSpacing=0;autosize=1;resizeHeight=0;resizeWidth=0;fixedWidth=0;size=20;" parent="1" vertex="1">
            <mxGeometry x="1020" y="370" width="80" height="70" as="geometry" />
          </mxCell>
        </object>
        <object label="" heigth="50&#xa;" id="ee28yyPHF1UoalUS08Q_-131">
          <mxCell style="shape=hexagon;perimeter=hexagonPerimeter2;whiteSpace=wrap;html=1;fixedSize=1;perimeterSpacing=0;autosize=1;resizeHeight=0;resizeWidth=0;fixedWidth=0;size=20;" parent="1" vertex="1">
            <mxGeometry x="1080" y="405" width="80" height="70" as="geometry" />
          </mxCell>
        </object>
        <object label="" heigth="50&#xa;" id="ee28yyPHF1UoalUS08Q_-132">
          <mxCell style="shape=hexagon;perimeter=hexagonPerimeter2;whiteSpace=wrap;html=1;fixedSize=1;perimeterSpacing=0;autosize=1;resizeHeight=0;resizeWidth=0;fixedWidth=0;size=20;" parent="1" vertex="1">
            <mxGeometry x="1200" y="405" width="80" height="70" as="geometry" />
          </mxCell>
        </object>
        <object label="" heigth="50&#xa;" id="ee28yyPHF1UoalUS08Q_-133">
          <mxCell style="shape=hexagon;perimeter=hexagonPerimeter2;whiteSpace=wrap;html=1;fixedSize=1;perimeterSpacing=0;autosize=1;resizeHeight=0;resizeWidth=0;fixedWidth=0;size=20;" parent="1" vertex="1">
            <mxGeometry x="1200" y="335" width="80" height="70" as="geometry" />
          </mxCell>
        </object>
        <object label="" heigth="50&#xa;" id="ee28yyPHF1UoalUS08Q_-134">
          <mxCell style="shape=hexagon;perimeter=hexagonPerimeter2;whiteSpace=wrap;html=1;fixedSize=1;perimeterSpacing=0;autosize=1;resizeHeight=0;resizeWidth=0;fixedWidth=0;size=20;" parent="1" vertex="1">
            <mxGeometry x="1140" y="370" width="80" height="70" as="geometry" />
          </mxCell>
        </object>
        <object label="" heigth="50&#xa;" id="ee28yyPHF1UoalUS08Q_-135">
          <mxCell style="shape=hexagon;perimeter=hexagonPerimeter2;whiteSpace=wrap;html=1;fixedSize=1;perimeterSpacing=0;autosize=1;resizeHeight=0;resizeWidth=0;fixedWidth=0;size=20;" parent="1" vertex="1">
            <mxGeometry x="1260" y="300" width="80" height="70" as="geometry" />
          </mxCell>
        </object>
        <object label="" heigth="50&#xa;" id="ee28yyPHF1UoalUS08Q_-136">
          <mxCell style="shape=hexagon;perimeter=hexagonPerimeter2;whiteSpace=wrap;html=1;fixedSize=1;perimeterSpacing=0;autosize=1;resizeHeight=0;resizeWidth=0;fixedWidth=0;size=20;" parent="1" vertex="1">
            <mxGeometry x="1260" y="230" width="80" height="70" as="geometry" />
          </mxCell>
        </object>
        <object label="" heigth="50&#xa;" id="ee28yyPHF1UoalUS08Q_-137">
          <mxCell style="shape=hexagon;perimeter=hexagonPerimeter2;whiteSpace=wrap;html=1;fixedSize=1;perimeterSpacing=0;autosize=1;resizeHeight=0;resizeWidth=0;fixedWidth=0;size=20;" parent="1" vertex="1">
            <mxGeometry x="1200" y="265" width="80" height="70" as="geometry" />
          </mxCell>
        </object>
        <object label="" heigth="50&#xa;" id="ee28yyPHF1UoalUS08Q_-138">
          <mxCell style="shape=hexagon;perimeter=hexagonPerimeter2;whiteSpace=wrap;html=1;fixedSize=1;perimeterSpacing=0;autosize=1;resizeHeight=0;resizeWidth=0;fixedWidth=0;size=20;" parent="1" vertex="1">
            <mxGeometry x="1260" y="440" width="80" height="70" as="geometry" />
          </mxCell>
        </object>
        <object label="" heigth="50&#xa;" id="ee28yyPHF1UoalUS08Q_-139">
          <mxCell style="shape=hexagon;perimeter=hexagonPerimeter2;whiteSpace=wrap;html=1;fixedSize=1;perimeterSpacing=0;autosize=1;resizeHeight=0;resizeWidth=0;fixedWidth=0;size=20;" parent="1" vertex="1">
            <mxGeometry x="1260" y="370" width="80" height="70" as="geometry" />
          </mxCell>
        </object>
        <object label="" heigth="50&#xa;" id="ee28yyPHF1UoalUS08Q_-140">
          <mxCell style="shape=hexagon;perimeter=hexagonPerimeter2;whiteSpace=wrap;html=1;fixedSize=1;perimeterSpacing=0;autosize=1;resizeHeight=0;resizeWidth=0;fixedWidth=0;size=20;" parent="1" vertex="1">
            <mxGeometry x="1320" y="265" width="80" height="70" as="geometry" />
          </mxCell>
        </object>
        <object label="" heigth="50&#xa;" id="ee28yyPHF1UoalUS08Q_-141">
          <mxCell style="shape=hexagon;perimeter=hexagonPerimeter2;whiteSpace=wrap;html=1;fixedSize=1;perimeterSpacing=0;autosize=1;resizeHeight=0;resizeWidth=0;fixedWidth=0;size=20;" parent="1" vertex="1">
            <mxGeometry x="1320" y="195" width="80" height="70" as="geometry" />
          </mxCell>
        </object>
        <object label="" heigth="50&#xa;" id="ee28yyPHF1UoalUS08Q_-142">
          <mxCell style="shape=hexagon;perimeter=hexagonPerimeter2;whiteSpace=wrap;html=1;fixedSize=1;perimeterSpacing=0;autosize=1;resizeHeight=0;resizeWidth=0;fixedWidth=0;size=20;" parent="1" vertex="1">
            <mxGeometry x="1320" y="335" width="80" height="70" as="geometry" />
          </mxCell>
        </object>
        <object label="" heigth="50&#xa;" id="ee28yyPHF1UoalUS08Q_-143">
          <mxCell style="shape=hexagon;perimeter=hexagonPerimeter2;whiteSpace=wrap;html=1;fixedSize=1;perimeterSpacing=0;autosize=1;resizeHeight=0;resizeWidth=0;fixedWidth=0;size=20;" parent="1" vertex="1">
            <mxGeometry x="1200" y="125" width="80" height="70" as="geometry" />
          </mxCell>
        </object>
        <object label="" heigth="50&#xa;" id="ee28yyPHF1UoalUS08Q_-144">
          <mxCell style="shape=hexagon;perimeter=hexagonPerimeter2;whiteSpace=wrap;html=1;fixedSize=1;perimeterSpacing=0;autosize=1;resizeHeight=0;resizeWidth=0;fixedWidth=0;size=20;" parent="1" vertex="1">
            <mxGeometry x="1260" y="160" width="80" height="70" as="geometry" />
          </mxCell>
        </object>
        <object label="" heigth="50&#xa;" id="ee28yyPHF1UoalUS08Q_-145">
          <mxCell style="shape=hexagon;perimeter=hexagonPerimeter2;whiteSpace=wrap;html=1;fixedSize=1;perimeterSpacing=0;autosize=1;resizeHeight=0;resizeWidth=0;fixedWidth=0;size=20;" parent="1" vertex="1">
            <mxGeometry x="1200" y="55" width="80" height="70" as="geometry" />
          </mxCell>
        </object>
        <object label="" heigth="50&#xa;" id="ee28yyPHF1UoalUS08Q_-146">
          <mxCell style="shape=hexagon;perimeter=hexagonPerimeter2;whiteSpace=wrap;html=1;fixedSize=1;perimeterSpacing=0;autosize=1;resizeHeight=0;resizeWidth=0;fixedWidth=0;size=20;" parent="1" vertex="1">
            <mxGeometry x="1260" y="90" width="80" height="70" as="geometry" />
          </mxCell>
        </object>
        <object label="" heigth="50&#xa;" id="ee28yyPHF1UoalUS08Q_-147">
          <mxCell style="shape=hexagon;perimeter=hexagonPerimeter2;whiteSpace=wrap;html=1;fixedSize=1;perimeterSpacing=0;autosize=1;resizeHeight=0;resizeWidth=0;fixedWidth=0;size=20;" parent="1" vertex="1">
            <mxGeometry x="1140" y="90" width="80" height="70" as="geometry" />
          </mxCell>
        </object>
        <object label="" heigth="50&#xa;" id="ee28yyPHF1UoalUS08Q_-148">
          <mxCell style="shape=hexagon;perimeter=hexagonPerimeter2;whiteSpace=wrap;html=1;fixedSize=1;perimeterSpacing=0;autosize=1;resizeHeight=0;resizeWidth=0;fixedWidth=0;size=20;" parent="1" vertex="1">
            <mxGeometry x="1140" y="20" width="80" height="70" as="geometry" />
          </mxCell>
        </object>
        <object label="" heigth="50&#xa;" id="ee28yyPHF1UoalUS08Q_-149">
          <mxCell style="shape=hexagon;perimeter=hexagonPerimeter2;whiteSpace=wrap;html=1;fixedSize=1;perimeterSpacing=0;autosize=1;resizeHeight=0;resizeWidth=0;fixedWidth=0;size=20;" parent="1" vertex="1">
            <mxGeometry x="1080" y="125" width="80" height="70" as="geometry" />
          </mxCell>
        </object>
        <object label="" heigth="50&#xa;" id="ee28yyPHF1UoalUS08Q_-150">
          <mxCell style="shape=hexagon;perimeter=hexagonPerimeter2;whiteSpace=wrap;html=1;fixedSize=1;perimeterSpacing=0;autosize=1;resizeHeight=0;resizeWidth=0;fixedWidth=0;size=20;" parent="1" vertex="1">
            <mxGeometry x="1080" y="55" width="80" height="70" as="geometry" />
          </mxCell>
        </object>
        <object label="" heigth="50&#xa;" id="ee28yyPHF1UoalUS08Q_-151">
          <mxCell style="shape=hexagon;perimeter=hexagonPerimeter2;whiteSpace=wrap;html=1;fixedSize=1;perimeterSpacing=0;autosize=1;resizeHeight=0;resizeWidth=0;fixedWidth=0;size=20;" parent="1" vertex="1">
            <mxGeometry x="1020" y="160" width="80" height="70" as="geometry" />
          </mxCell>
        </object>
        <object label="" heigth="50&#xa;" id="ee28yyPHF1UoalUS08Q_-152">
          <mxCell style="shape=hexagon;perimeter=hexagonPerimeter2;whiteSpace=wrap;html=1;fixedSize=1;perimeterSpacing=0;autosize=1;resizeHeight=0;resizeWidth=0;fixedWidth=0;size=20;" parent="1" vertex="1">
            <mxGeometry x="1020" y="90" width="80" height="70" as="geometry" />
          </mxCell>
        </object>
        <object label="" heigth="50&#xa;" id="ee28yyPHF1UoalUS08Q_-153">
          <mxCell style="shape=hexagon;perimeter=hexagonPerimeter2;whiteSpace=wrap;html=1;fixedSize=1;perimeterSpacing=0;autosize=1;resizeHeight=0;resizeWidth=0;fixedWidth=0;size=20;" parent="1" vertex="1">
            <mxGeometry x="1020" y="20" width="80" height="70" as="geometry" />
          </mxCell>
        </object>
        <object label="" heigth="50&#xa;" id="ee28yyPHF1UoalUS08Q_-154">
          <mxCell style="shape=hexagon;perimeter=hexagonPerimeter2;whiteSpace=wrap;html=1;fixedSize=1;perimeterSpacing=0;autosize=1;resizeHeight=0;resizeWidth=0;fixedWidth=0;size=20;" parent="1" vertex="1">
            <mxGeometry x="960" y="195" width="80" height="70" as="geometry" />
          </mxCell>
        </object>
        <object label="" heigth="50&#xa;" id="ee28yyPHF1UoalUS08Q_-155">
          <mxCell style="shape=hexagon;perimeter=hexagonPerimeter2;whiteSpace=wrap;html=1;fixedSize=1;perimeterSpacing=0;autosize=1;resizeHeight=0;resizeWidth=0;fixedWidth=0;size=20;" parent="1" vertex="1">
            <mxGeometry x="960" y="125" width="80" height="70" as="geometry" />
          </mxCell>
        </object>
        <object label="" heigth="50&#xa;" id="ee28yyPHF1UoalUS08Q_-156">
          <mxCell style="shape=hexagon;perimeter=hexagonPerimeter2;whiteSpace=wrap;html=1;fixedSize=1;perimeterSpacing=0;autosize=1;resizeHeight=0;resizeWidth=0;fixedWidth=0;size=20;" parent="1" vertex="1">
            <mxGeometry x="960" y="55" width="80" height="70" as="geometry" />
          </mxCell>
        </object>
        <object label="" heigth="50&#xa;" id="ee28yyPHF1UoalUS08Q_-157">
          <mxCell style="shape=hexagon;perimeter=hexagonPerimeter2;whiteSpace=wrap;html=1;fixedSize=1;perimeterSpacing=0;autosize=1;resizeHeight=0;resizeWidth=0;fixedWidth=0;size=20;" parent="1" vertex="1">
            <mxGeometry x="900" y="230" width="80" height="70" as="geometry" />
          </mxCell>
        </object>
        <object label="" heigth="50&#xa;" id="ee28yyPHF1UoalUS08Q_-158">
          <mxCell style="shape=hexagon;perimeter=hexagonPerimeter2;whiteSpace=wrap;html=1;fixedSize=1;perimeterSpacing=0;autosize=1;resizeHeight=0;resizeWidth=0;fixedWidth=0;size=20;" parent="1" vertex="1">
            <mxGeometry x="900" y="160" width="80" height="70" as="geometry" />
          </mxCell>
        </object>
        <object label="" heigth="50&#xa;" id="ee28yyPHF1UoalUS08Q_-159">
          <mxCell style="shape=hexagon;perimeter=hexagonPerimeter2;whiteSpace=wrap;html=1;fixedSize=1;perimeterSpacing=0;autosize=1;resizeHeight=0;resizeWidth=0;fixedWidth=0;size=20;" parent="1" vertex="1">
            <mxGeometry x="900" y="90" width="80" height="70" as="geometry" />
          </mxCell>
        </object>
        <object label="" heigth="50&#xa;" id="ee28yyPHF1UoalUS08Q_-160">
          <mxCell style="shape=hexagon;perimeter=hexagonPerimeter2;whiteSpace=wrap;html=1;fixedSize=1;perimeterSpacing=0;autosize=1;resizeHeight=0;resizeWidth=0;fixedWidth=0;size=20;" parent="1" vertex="1">
            <mxGeometry x="840" y="335" width="80" height="70" as="geometry" />
          </mxCell>
        </object>
        <object label="" heigth="50&#xa;" id="ee28yyPHF1UoalUS08Q_-161">
          <mxCell style="shape=hexagon;perimeter=hexagonPerimeter2;whiteSpace=wrap;html=1;fixedSize=1;perimeterSpacing=0;autosize=1;resizeHeight=0;resizeWidth=0;fixedWidth=0;size=20;" parent="1" vertex="1">
            <mxGeometry x="840" y="265" width="80" height="70" as="geometry" />
          </mxCell>
        </object>
        <object label="" heigth="50&#xa;" id="ee28yyPHF1UoalUS08Q_-162">
          <mxCell style="shape=hexagon;perimeter=hexagonPerimeter2;whiteSpace=wrap;html=1;fixedSize=1;perimeterSpacing=0;autosize=1;resizeHeight=0;resizeWidth=0;fixedWidth=0;size=20;" parent="1" vertex="1">
            <mxGeometry x="840" y="195" width="80" height="70" as="geometry" />
          </mxCell>
        </object>
        <object label="" heigth="50&#xa;" id="ee28yyPHF1UoalUS08Q_-163">
          <mxCell style="shape=hexagon;perimeter=hexagonPerimeter2;whiteSpace=wrap;html=1;fixedSize=1;perimeterSpacing=0;autosize=1;resizeHeight=0;resizeWidth=0;fixedWidth=0;size=20;" parent="1" vertex="1">
            <mxGeometry x="900" y="440" width="80" height="70" as="geometry" />
          </mxCell>
        </object>
        <object label="" heigth="50&#xa;" id="ee28yyPHF1UoalUS08Q_-164">
          <mxCell style="shape=hexagon;perimeter=hexagonPerimeter2;whiteSpace=wrap;html=1;fixedSize=1;perimeterSpacing=0;autosize=1;resizeHeight=0;resizeWidth=0;fixedWidth=0;size=20;" parent="1" vertex="1">
            <mxGeometry x="900" y="370" width="80" height="70" as="geometry" />
          </mxCell>
        </object>
        <object label="" heigth="50&#xa;" id="ee28yyPHF1UoalUS08Q_-165">
          <mxCell style="shape=hexagon;perimeter=hexagonPerimeter2;whiteSpace=wrap;html=1;fixedSize=1;perimeterSpacing=0;autosize=1;resizeHeight=0;resizeWidth=0;fixedWidth=0;size=20;" parent="1" vertex="1">
            <mxGeometry x="900" y="300" width="80" height="70" as="geometry" />
          </mxCell>
        </object>
        <object label="" heigth="50&#xa;" id="ee28yyPHF1UoalUS08Q_-166">
          <mxCell style="shape=hexagon;perimeter=hexagonPerimeter2;whiteSpace=wrap;html=1;fixedSize=1;perimeterSpacing=0;autosize=1;resizeHeight=0;resizeWidth=0;fixedWidth=0;size=20;" parent="1" vertex="1">
            <mxGeometry x="960" y="405" width="80" height="70" as="geometry" />
          </mxCell>
        </object>
        <object label="" heigth="50&#xa;" id="ee28yyPHF1UoalUS08Q_-167">
          <mxCell style="shape=hexagon;perimeter=hexagonPerimeter2;whiteSpace=wrap;html=1;fixedSize=1;perimeterSpacing=0;autosize=1;resizeHeight=0;resizeWidth=0;fixedWidth=0;size=20;" parent="1" vertex="1">
            <mxGeometry x="960" y="335" width="80" height="70" as="geometry" />
          </mxCell>
        </object>
        <object label="" heigth="50&#xa;" id="ee28yyPHF1UoalUS08Q_-168">
          <mxCell style="shape=hexagon;perimeter=hexagonPerimeter2;whiteSpace=wrap;html=1;fixedSize=1;perimeterSpacing=0;autosize=1;resizeHeight=0;resizeWidth=0;fixedWidth=0;size=20;" parent="1" vertex="1">
            <mxGeometry x="960" y="265" width="80" height="70" as="geometry" />
          </mxCell>
        </object>
        <object label="" heigth="50&#xa;" id="ee28yyPHF1UoalUS08Q_-169">
          <mxCell style="shape=hexagon;perimeter=hexagonPerimeter2;whiteSpace=wrap;html=1;fixedSize=1;perimeterSpacing=0;autosize=1;resizeHeight=0;resizeWidth=0;fixedWidth=0;size=20;" parent="1" vertex="1">
            <mxGeometry x="960" y="475" width="80" height="70" as="geometry" />
          </mxCell>
        </object>
        <object label="" heigth="50&#xa;" id="ee28yyPHF1UoalUS08Q_-170">
          <mxCell style="shape=hexagon;perimeter=hexagonPerimeter2;whiteSpace=wrap;html=1;fixedSize=1;perimeterSpacing=0;autosize=1;resizeHeight=0;resizeWidth=0;fixedWidth=0;size=20;" parent="1" vertex="1">
            <mxGeometry x="1020" y="440" width="80" height="70" as="geometry" />
          </mxCell>
        </object>
        <object label="" heigth="50&#xa;" id="ee28yyPHF1UoalUS08Q_-172">
          <mxCell style="shape=hexagon;perimeter=hexagonPerimeter2;whiteSpace=wrap;html=1;fixedSize=1;perimeterSpacing=0;autosize=1;resizeHeight=0;resizeWidth=0;fixedWidth=0;size=20;" parent="1" vertex="1">
            <mxGeometry x="1140" y="440" width="80" height="70" as="geometry" />
          </mxCell>
        </object>
        <object label="" heigth="50&#xa;" id="ee28yyPHF1UoalUS08Q_-173">
          <mxCell style="shape=hexagon;perimeter=hexagonPerimeter2;whiteSpace=wrap;html=1;fixedSize=1;perimeterSpacing=0;autosize=1;resizeHeight=0;resizeWidth=0;fixedWidth=0;size=20;" parent="1" vertex="1">
            <mxGeometry x="1200" y="475" width="80" height="70" as="geometry" />
          </mxCell>
        </object>
        <object label="" heigth="50&#xa;" id="ee28yyPHF1UoalUS08Q_-174">
          <mxCell style="shape=hexagon;perimeter=hexagonPerimeter2;whiteSpace=wrap;html=1;fixedSize=1;perimeterSpacing=0;autosize=1;resizeHeight=0;resizeWidth=0;fixedWidth=0;size=20;" parent="1" vertex="1">
            <mxGeometry x="1020" y="510" width="80" height="70" as="geometry" />
          </mxCell>
        </object>
        <object label="" heigth="50&#xa;" id="ee28yyPHF1UoalUS08Q_-175">
          <mxCell style="shape=hexagon;perimeter=hexagonPerimeter2;whiteSpace=wrap;html=1;fixedSize=1;perimeterSpacing=0;autosize=1;resizeHeight=0;resizeWidth=0;fixedWidth=0;size=20;" parent="1" vertex="1">
            <mxGeometry x="1140" y="510" width="80" height="70" as="geometry" />
          </mxCell>
        </object>
        <object label="" heigth="50&#xa;" id="ee28yyPHF1UoalUS08Q_-241">
          <mxCell style="shape=hexagon;perimeter=hexagonPerimeter2;whiteSpace=wrap;html=1;fixedSize=1;perimeterSpacing=0;autosize=1;resizeHeight=0;resizeWidth=0;fixedWidth=0;size=20;" parent="1" vertex="1">
            <mxGeometry x="1060" y="1070" width="80" height="70" as="geometry" />
          </mxCell>
        </object>
        <mxCell id="kzY0joeilmkfOgr9uoT9-1" value="" style="shape=trapezoid;perimeter=trapezoidPerimeter;whiteSpace=wrap;html=1;fixedSize=1;" parent="1" vertex="1">
          <mxGeometry x="1080" y="685" width="80" height="35" as="geometry" />
        </mxCell>
        <object label="" heigth="50&#xa;" id="kzY0joeilmkfOgr9uoT9-2">
          <mxCell style="shape=hexagon;perimeter=hexagonPerimeter2;whiteSpace=wrap;html=1;fixedSize=1;perimeterSpacing=0;autosize=1;resizeHeight=0;resizeWidth=0;fixedWidth=0;size=20;" parent="1" vertex="1">
            <mxGeometry x="1080" y="475" width="80" height="70" as="geometry" />
          </mxCell>
        </object>
        <object label="" heigth="50&#xa;" id="kzY0joeilmkfOgr9uoT9-3">
          <mxCell style="shape=hexagon;perimeter=hexagonPerimeter2;whiteSpace=wrap;html=1;fixedSize=1;perimeterSpacing=0;autosize=1;resizeHeight=0;resizeWidth=0;fixedWidth=0;size=20;" parent="1" vertex="1">
            <mxGeometry x="1080" y="615" width="80" height="70" as="geometry" />
          </mxCell>
        </object>
        <mxCell id="kzY0joeilmkfOgr9uoT9-4" value="" style="shape=trapezoid;perimeter=trapezoidPerimeter;whiteSpace=wrap;html=1;fixedSize=1;rotation=-180;" parent="1" vertex="1">
          <mxGeometry x="1080" y="580" width="80" height="35" as="geometry" />
        </mxCell>
        <object label="" heigth="50&#xa;" id="kzY0joeilmkfOgr9uoT9-5">
          <mxCell style="shape=hexagon;perimeter=hexagonPerimeter2;whiteSpace=wrap;html=1;fixedSize=1;perimeterSpacing=0;autosize=1;resizeHeight=0;resizeWidth=0;fixedWidth=0;size=20;" parent="1" vertex="1">
            <mxGeometry x="1160" y="755" width="80" height="70" as="geometry" />
          </mxCell>
        </object>
        <object label="" heigth="50&#xa;" id="kzY0joeilmkfOgr9uoT9-7">
          <mxCell style="shape=hexagon;perimeter=hexagonPerimeter2;whiteSpace=wrap;html=1;fixedSize=1;perimeterSpacing=0;autosize=1;resizeHeight=0;resizeWidth=0;fixedWidth=0;size=20;" parent="1" vertex="1">
            <mxGeometry x="940" y="720" width="80" height="70" as="geometry" />
          </mxCell>
        </object>
        <mxCell id="kzY0joeilmkfOgr9uoT9-10" value="" style="shape=parallelogram;perimeter=parallelogramPerimeter;whiteSpace=wrap;html=1;fixedSize=1;" parent="1" vertex="1">
          <mxGeometry x="1000" y="755" width="60" height="35" as="geometry" />
        </mxCell>
        <object label="" heigth="50&#xa;" id="kzY0joeilmkfOgr9uoT9-13">
          <mxCell style="shape=hexagon;perimeter=hexagonPerimeter2;whiteSpace=wrap;html=1;fixedSize=1;perimeterSpacing=0;autosize=1;resizeHeight=0;resizeWidth=0;fixedWidth=0;size=20;" parent="1" vertex="1">
            <mxGeometry x="940" y="790" width="80" height="70" as="geometry" />
          </mxCell>
        </object>
        <mxCell id="kzY0joeilmkfOgr9uoT9-14" value="" style="shape=trapezoid;perimeter=trapezoidPerimeter;whiteSpace=wrap;html=1;fixedSize=1;rotation=120;" parent="1" vertex="1">
          <mxGeometry x="895" y="781" width="80" height="35" as="geometry" />
        </mxCell>
        <object label="" heigth="50&#xa;" id="kzY0joeilmkfOgr9uoT9-15">
          <mxCell style="shape=hexagon;perimeter=hexagonPerimeter2;whiteSpace=wrap;html=1;fixedSize=1;perimeterSpacing=0;autosize=1;resizeHeight=0;resizeWidth=0;fixedWidth=0;size=20;" parent="1" vertex="1">
            <mxGeometry x="880" y="825" width="80" height="70" as="geometry" />
          </mxCell>
        </object>
        <mxCell id="kzY0joeilmkfOgr9uoT9-17" value="" style="triangle;whiteSpace=wrap;html=1;rotation=90;" parent="1" vertex="1">
          <mxGeometry x="1002" y="788" width="35" height="40" as="geometry" />
        </mxCell>
        <object label="" heigth="50&#xa;" id="kzY0joeilmkfOgr9uoT9-18">
          <mxCell style="shape=hexagon;perimeter=hexagonPerimeter2;whiteSpace=wrap;html=1;fixedSize=1;perimeterSpacing=0;autosize=1;resizeHeight=0;resizeWidth=0;fixedWidth=0;size=20;" parent="1" vertex="1">
            <mxGeometry x="1220" y="720" width="80" height="70" as="geometry" />
          </mxCell>
        </object>
        <mxCell id="kzY0joeilmkfOgr9uoT9-20" value="" style="shape=parallelogram;perimeter=parallelogramPerimeter;whiteSpace=wrap;html=1;fixedSize=1;rotation=120;direction=west;flipH=0;" parent="1" vertex="1">
          <mxGeometry x="1070" y="842.5" width="60" height="35" as="geometry" />
        </mxCell>
        <mxCell id="kzY0joeilmkfOgr9uoT9-21" value="" style="shape=trapezoid;perimeter=trapezoidPerimeter;whiteSpace=wrap;html=1;fixedSize=1;rotation=-180;" parent="1" vertex="1">
          <mxGeometry x="1000" y="720" width="80" height="35" as="geometry" />
        </mxCell>
        <object label="" heigth="50&#xa;" id="kzY0joeilmkfOgr9uoT9-22">
          <mxCell style="shape=hexagon;perimeter=hexagonPerimeter2;whiteSpace=wrap;html=1;fixedSize=1;perimeterSpacing=0;autosize=1;resizeHeight=0;resizeWidth=0;fixedWidth=0;size=20;" parent="1" vertex="1">
            <mxGeometry x="940" y="860" width="80" height="70" as="geometry" />
          </mxCell>
        </object>
        <object label="" heigth="50&#xa;" id="kzY0joeilmkfOgr9uoT9-23">
          <mxCell style="shape=hexagon;perimeter=hexagonPerimeter2;whiteSpace=wrap;html=1;fixedSize=1;perimeterSpacing=0;autosize=1;resizeHeight=0;resizeWidth=0;fixedWidth=0;size=20;" parent="1" vertex="1">
            <mxGeometry x="880" y="895" width="80" height="70" as="geometry" />
          </mxCell>
        </object>
        <object label="" heigth="50&#xa;" id="kzY0joeilmkfOgr9uoT9-24">
          <mxCell style="shape=hexagon;perimeter=hexagonPerimeter2;whiteSpace=wrap;html=1;fixedSize=1;perimeterSpacing=0;autosize=1;resizeHeight=0;resizeWidth=0;fixedWidth=0;size=20;" parent="1" vertex="1">
            <mxGeometry x="820" y="930" width="80" height="70" as="geometry" />
          </mxCell>
        </object>
        <object label="" heigth="50&#xa;" id="kzY0joeilmkfOgr9uoT9-25">
          <mxCell style="shape=hexagon;perimeter=hexagonPerimeter2;whiteSpace=wrap;html=1;fixedSize=1;perimeterSpacing=0;autosize=1;resizeHeight=0;resizeWidth=0;fixedWidth=0;size=20;" parent="1" vertex="1">
            <mxGeometry x="820" y="1000" width="80" height="70" as="geometry" />
          </mxCell>
        </object>
        <object label="" heigth="50&#xa;" id="kzY0joeilmkfOgr9uoT9-26">
          <mxCell style="shape=hexagon;perimeter=hexagonPerimeter2;whiteSpace=wrap;html=1;fixedSize=1;perimeterSpacing=0;autosize=1;resizeHeight=0;resizeWidth=0;fixedWidth=0;size=20;" parent="1" vertex="1">
            <mxGeometry x="880" y="965" width="80" height="70" as="geometry" />
          </mxCell>
        </object>
        <object label="" heigth="50&#xa;" id="kzY0joeilmkfOgr9uoT9-27">
          <mxCell style="shape=hexagon;perimeter=hexagonPerimeter2;whiteSpace=wrap;html=1;fixedSize=1;perimeterSpacing=0;autosize=1;resizeHeight=0;resizeWidth=0;fixedWidth=0;size=20;" parent="1" vertex="1">
            <mxGeometry x="880" y="1035" width="80" height="70" as="geometry" />
          </mxCell>
        </object>
        <object label="" heigth="50&#xa;" id="kzY0joeilmkfOgr9uoT9-28">
          <mxCell style="shape=hexagon;perimeter=hexagonPerimeter2;whiteSpace=wrap;html=1;fixedSize=1;perimeterSpacing=0;autosize=1;resizeHeight=0;resizeWidth=0;fixedWidth=0;size=20;" parent="1" vertex="1">
            <mxGeometry x="940" y="930" width="80" height="70" as="geometry" />
          </mxCell>
        </object>
        <mxCell id="kzY0joeilmkfOgr9uoT9-29" value="" style="shape=parallelogram;perimeter=parallelogramPerimeter;whiteSpace=wrap;html=1;fixedSize=1;rotation=120;direction=west;flipH=0;" parent="1" vertex="1">
          <mxGeometry x="989.5" y="912.5" width="60" height="35" as="geometry" />
        </mxCell>
        <object label="" heigth="50&#xa;" id="kzY0joeilmkfOgr9uoT9-30">
          <mxCell style="shape=hexagon;perimeter=hexagonPerimeter2;whiteSpace=wrap;html=1;fixedSize=1;perimeterSpacing=0;autosize=1;resizeHeight=0;resizeWidth=0;fixedWidth=0;size=20;" parent="1" vertex="1">
            <mxGeometry x="1000" y="965" width="80" height="70" as="geometry" />
          </mxCell>
        </object>
        <object label="" heigth="50&#xa;" id="kzY0joeilmkfOgr9uoT9-31">
          <mxCell style="shape=hexagon;perimeter=hexagonPerimeter2;whiteSpace=wrap;html=1;fixedSize=1;perimeterSpacing=0;autosize=1;resizeHeight=0;resizeWidth=0;fixedWidth=0;size=20;" parent="1" vertex="1">
            <mxGeometry x="940" y="1000" width="80" height="70" as="geometry" />
          </mxCell>
        </object>
        <object label="" heigth="50&#xa;" id="kzY0joeilmkfOgr9uoT9-32">
          <mxCell style="shape=hexagon;perimeter=hexagonPerimeter2;whiteSpace=wrap;html=1;fixedSize=1;perimeterSpacing=0;autosize=1;resizeHeight=0;resizeWidth=0;fixedWidth=0;size=20;" parent="1" vertex="1">
            <mxGeometry x="880" y="1105" width="80" height="70" as="geometry" />
          </mxCell>
        </object>
        <object label="" heigth="50&#xa;" id="kzY0joeilmkfOgr9uoT9-33">
          <mxCell style="shape=hexagon;perimeter=hexagonPerimeter2;whiteSpace=wrap;html=1;fixedSize=1;perimeterSpacing=0;autosize=1;resizeHeight=0;resizeWidth=0;fixedWidth=0;size=20;" parent="1" vertex="1">
            <mxGeometry x="940" y="1070" width="80" height="70" as="geometry" />
          </mxCell>
        </object>
        <object label="" heigth="50&#xa;" id="kzY0joeilmkfOgr9uoT9-34">
          <mxCell style="shape=hexagon;perimeter=hexagonPerimeter2;whiteSpace=wrap;html=1;fixedSize=1;perimeterSpacing=0;autosize=1;resizeHeight=0;resizeWidth=0;fixedWidth=0;size=20;" parent="1" vertex="1">
            <mxGeometry x="940" y="1140" width="80" height="70" as="geometry" />
          </mxCell>
        </object>
        <object label="" heigth="50&#xa;" id="kzY0joeilmkfOgr9uoT9-35">
          <mxCell style="shape=hexagon;perimeter=hexagonPerimeter2;whiteSpace=wrap;html=1;fixedSize=1;perimeterSpacing=0;autosize=1;resizeHeight=0;resizeWidth=0;fixedWidth=0;size=20;" parent="1" vertex="1">
            <mxGeometry x="940" y="1210" width="80" height="70" as="geometry" />
          </mxCell>
        </object>
        <mxCell id="kzY0joeilmkfOgr9uoT9-36" value="" style="shape=trapezoid;perimeter=trapezoidPerimeter;whiteSpace=wrap;html=1;fixedSize=1;rotation=-180;" parent="1" vertex="1">
          <mxGeometry x="1080" y="1280" width="80" height="35" as="geometry" />
        </mxCell>
        <object label="" heigth="50&#xa;" id="kzY0joeilmkfOgr9uoT9-37">
          <mxCell style="shape=hexagon;perimeter=hexagonPerimeter2;whiteSpace=wrap;html=1;fixedSize=1;perimeterSpacing=0;autosize=1;resizeHeight=0;resizeWidth=0;fixedWidth=0;size=20;" parent="1" vertex="1">
            <mxGeometry x="1080" y="1315" width="80" height="70" as="geometry" />
          </mxCell>
        </object>
        <mxCell id="kzY0joeilmkfOgr9uoT9-38" value="" style="shape=trapezoid;perimeter=trapezoidPerimeter;whiteSpace=wrap;html=1;fixedSize=1;" parent="1" vertex="1">
          <mxGeometry x="1080" y="1385" width="80" height="35" as="geometry" />
        </mxCell>
        <object label="" heigth="50&#xa;" id="kzY0joeilmkfOgr9uoT9-39">
          <mxCell style="shape=hexagon;perimeter=hexagonPerimeter2;whiteSpace=wrap;html=1;fixedSize=1;perimeterSpacing=0;autosize=1;resizeHeight=0;resizeWidth=0;fixedWidth=0;size=20;" parent="1" vertex="1">
            <mxGeometry x="1000" y="1175" width="80" height="70" as="geometry" />
          </mxCell>
        </object>
        <object label="" heigth="50&#xa;" id="kzY0joeilmkfOgr9uoT9-40">
          <mxCell style="shape=hexagon;perimeter=hexagonPerimeter2;whiteSpace=wrap;html=1;fixedSize=1;perimeterSpacing=0;autosize=1;resizeHeight=0;resizeWidth=0;fixedWidth=0;size=20;" parent="1" vertex="1">
            <mxGeometry x="1000" y="1105" width="80" height="70" as="geometry" />
          </mxCell>
        </object>
        <object label="" heigth="50&#xa;" id="kzY0joeilmkfOgr9uoT9-41">
          <mxCell style="shape=hexagon;perimeter=hexagonPerimeter2;whiteSpace=wrap;html=1;fixedSize=1;perimeterSpacing=0;autosize=1;resizeHeight=0;resizeWidth=0;fixedWidth=0;size=20;" parent="1" vertex="1">
            <mxGeometry x="1000" y="1035" width="80" height="70" as="geometry" />
          </mxCell>
        </object>
        <mxCell id="kzY0joeilmkfOgr9uoT9-42" value="" style="shape=trapezoid;perimeter=trapezoidPerimeter;whiteSpace=wrap;html=1;fixedSize=1;" parent="1" vertex="1">
          <mxGeometry x="1000" y="1245" width="80" height="35" as="geometry" />
        </mxCell>
        <mxCell id="kzY0joeilmkfOgr9uoT9-43" value="" style="shape=parallelogram;perimeter=parallelogramPerimeter;whiteSpace=wrap;html=1;fixedSize=1;rotation=120;direction=west;flipH=0;" parent="1" vertex="1">
          <mxGeometry x="1050" y="1017.5" width="60" height="35" as="geometry" />
        </mxCell>
        <mxCell id="kzY0joeilmkfOgr9uoT9-44" value="" style="triangle;whiteSpace=wrap;html=1;rotation=-210;" parent="1" vertex="1">
          <mxGeometry x="1017" y="936" width="35" height="40" as="geometry" />
        </mxCell>
        <mxCell id="kzY0joeilmkfOgr9uoT9-45" value="" style="triangle;whiteSpace=wrap;html=1;rotation=-210;" parent="1" vertex="1">
          <mxGeometry x="1077" y="1042" width="35" height="40" as="geometry" />
        </mxCell>
        <object label="" heigth="50&#xa;" id="kzY0joeilmkfOgr9uoT9-46">
          <mxCell style="shape=hexagon;perimeter=hexagonPerimeter2;whiteSpace=wrap;html=1;fixedSize=1;perimeterSpacing=0;autosize=1;resizeHeight=0;resizeWidth=0;fixedWidth=0;size=20;" parent="1" vertex="1">
            <mxGeometry x="1100" y="790" width="80" height="70" as="geometry" />
          </mxCell>
        </object>
        <object label="" heigth="50&#xa;" id="kzY0joeilmkfOgr9uoT9-48">
          <mxCell style="shape=hexagon;perimeter=hexagonPerimeter2;whiteSpace=wrap;html=1;fixedSize=1;perimeterSpacing=0;autosize=1;resizeHeight=0;resizeWidth=0;fixedWidth=0;size=20;" parent="1" vertex="1">
            <mxGeometry x="1280" y="825" width="80" height="70" as="geometry" />
          </mxCell>
        </object>
        <mxCell id="kzY0joeilmkfOgr9uoT9-49" value="" style="shape=trapezoid;perimeter=trapezoidPerimeter;whiteSpace=wrap;html=1;fixedSize=1;rotation=120;" parent="1" vertex="1">
          <mxGeometry x="1115" y="746" width="80" height="35" as="geometry" />
        </mxCell>
        <object label="" heigth="50&#xa;" id="kzY0joeilmkfOgr9uoT9-50">
          <mxCell style="shape=hexagon;perimeter=hexagonPerimeter2;whiteSpace=wrap;html=1;fixedSize=1;perimeterSpacing=0;autosize=1;resizeHeight=0;resizeWidth=0;fixedWidth=0;size=20;" parent="1" vertex="1">
            <mxGeometry x="1160" y="825" width="80" height="70" as="geometry" />
          </mxCell>
        </object>
        <object label="" heigth="50&#xa;" id="kzY0joeilmkfOgr9uoT9-51">
          <mxCell style="shape=hexagon;perimeter=hexagonPerimeter2;whiteSpace=wrap;html=1;fixedSize=1;perimeterSpacing=0;autosize=1;resizeHeight=0;resizeWidth=0;fixedWidth=0;size=20;" parent="1" vertex="1">
            <mxGeometry x="1160" y="895" width="80" height="70" as="geometry" />
          </mxCell>
        </object>
        <object label="" heigth="50&#xa;" id="kzY0joeilmkfOgr9uoT9-52">
          <mxCell style="shape=hexagon;perimeter=hexagonPerimeter2;whiteSpace=wrap;html=1;fixedSize=1;perimeterSpacing=0;autosize=1;resizeHeight=0;resizeWidth=0;fixedWidth=0;size=20;" parent="1" vertex="1">
            <mxGeometry x="1220" y="930" width="80" height="70" as="geometry" />
          </mxCell>
        </object>
        <object label="" heigth="50&#xa;" id="kzY0joeilmkfOgr9uoT9-53">
          <mxCell style="shape=hexagon;perimeter=hexagonPerimeter2;whiteSpace=wrap;html=1;fixedSize=1;perimeterSpacing=0;autosize=1;resizeHeight=0;resizeWidth=0;fixedWidth=0;size=20;" parent="1" vertex="1">
            <mxGeometry x="1160" y="965" width="80" height="70" as="geometry" />
          </mxCell>
        </object>
        <object label="" heigth="50&#xa;" id="kzY0joeilmkfOgr9uoT9-54">
          <mxCell style="shape=hexagon;perimeter=hexagonPerimeter2;whiteSpace=wrap;html=1;fixedSize=1;perimeterSpacing=0;autosize=1;resizeHeight=0;resizeWidth=0;fixedWidth=0;size=20;" parent="1" vertex="1">
            <mxGeometry x="1220" y="1070" width="80" height="70" as="geometry" />
          </mxCell>
        </object>
        <mxCell id="kzY0joeilmkfOgr9uoT9-55" value="" style="shape=trapezoid;perimeter=trapezoidPerimeter;whiteSpace=wrap;html=1;fixedSize=1;rotation=120;" parent="1" vertex="1">
          <mxGeometry x="1176" y="1202" width="80" height="35" as="geometry" />
        </mxCell>
        <object label="" heigth="50&#xa;" id="kzY0joeilmkfOgr9uoT9-56">
          <mxCell style="shape=hexagon;perimeter=hexagonPerimeter2;whiteSpace=wrap;html=1;fixedSize=1;perimeterSpacing=0;autosize=1;resizeHeight=0;resizeWidth=0;fixedWidth=0;size=20;" parent="1" vertex="1">
            <mxGeometry x="1280" y="1105" width="80" height="70" as="geometry" />
          </mxCell>
        </object>
        <mxCell id="kzY0joeilmkfOgr9uoT9-57" value="" style="shape=trapezoid;perimeter=trapezoidPerimeter;whiteSpace=wrap;html=1;fixedSize=1;rotation=-120;flipH=0;flipV=1;" parent="1" vertex="1">
          <mxGeometry x="1175" y="1043" width="80" height="35" as="geometry" />
        </mxCell>
        <mxCell id="kzY0joeilmkfOgr9uoT9-58" value="" style="shape=trapezoid;perimeter=trapezoidPerimeter;whiteSpace=wrap;html=1;fixedSize=1;rotation=-120;flipH=0;flipV=1;" parent="1" vertex="1">
          <mxGeometry x="1115" y="938.5" width="80" height="35" as="geometry" />
        </mxCell>
        <object label="" heigth="50&#xa;" id="kzY0joeilmkfOgr9uoT9-59">
          <mxCell style="shape=hexagon;perimeter=hexagonPerimeter2;whiteSpace=wrap;html=1;fixedSize=1;perimeterSpacing=0;autosize=1;resizeHeight=0;resizeWidth=0;fixedWidth=0;size=20;" parent="1" vertex="1">
            <mxGeometry x="1060" y="1140" width="80" height="70" as="geometry" />
          </mxCell>
        </object>
        <mxCell id="kzY0joeilmkfOgr9uoT9-60" value="" style="shape=trapezoid;perimeter=trapezoidPerimeter;whiteSpace=wrap;html=1;fixedSize=1;rotation=-60;" parent="1" vertex="1">
          <mxGeometry x="1045" y="1219" width="80" height="35" as="geometry" />
        </mxCell>
        <object label="" heigth="50&#xa;" id="kzY0joeilmkfOgr9uoT9-61">
          <mxCell style="shape=hexagon;perimeter=hexagonPerimeter2;whiteSpace=wrap;html=1;fixedSize=1;perimeterSpacing=0;autosize=1;resizeHeight=0;resizeWidth=0;fixedWidth=0;size=20;" parent="1" vertex="1">
            <mxGeometry x="1220" y="860" width="80" height="70" as="geometry" />
          </mxCell>
        </object>
        <object label="" heigth="50&#xa;" id="kzY0joeilmkfOgr9uoT9-62">
          <mxCell style="shape=hexagon;perimeter=hexagonPerimeter2;whiteSpace=wrap;html=1;fixedSize=1;perimeterSpacing=0;autosize=1;resizeHeight=0;resizeWidth=0;fixedWidth=0;size=20;" parent="1" vertex="1">
            <mxGeometry x="1220" y="790" width="80" height="70" as="geometry" />
          </mxCell>
        </object>
        <mxCell id="kzY0joeilmkfOgr9uoT9-63" value="" style="shape=trapezoid;perimeter=trapezoidPerimeter;whiteSpace=wrap;html=1;fixedSize=1;rotation=-180;" parent="1" vertex="1">
          <mxGeometry x="1160" y="720" width="80" height="35" as="geometry" />
        </mxCell>
        <object label="" heigth="50&#xa;" id="kzY0joeilmkfOgr9uoT9-64">
          <mxCell style="shape=hexagon;perimeter=hexagonPerimeter2;whiteSpace=wrap;html=1;fixedSize=1;perimeterSpacing=0;autosize=1;resizeHeight=0;resizeWidth=0;fixedWidth=0;size=20;" parent="1" vertex="1">
            <mxGeometry x="1100" y="860" width="80" height="70" as="geometry" />
          </mxCell>
        </object>
        <object label="" heigth="50&#xa;" id="kzY0joeilmkfOgr9uoT9-65">
          <mxCell style="shape=hexagon;perimeter=hexagonPerimeter2;whiteSpace=wrap;html=1;fixedSize=1;perimeterSpacing=0;autosize=1;resizeHeight=0;resizeWidth=0;fixedWidth=0;size=20;" parent="1" vertex="1">
            <mxGeometry x="1280" y="895" width="80" height="70" as="geometry" />
          </mxCell>
        </object>
        <object label="" heigth="50&#xa;" id="kzY0joeilmkfOgr9uoT9-66">
          <mxCell style="shape=hexagon;perimeter=hexagonPerimeter2;whiteSpace=wrap;html=1;fixedSize=1;perimeterSpacing=0;autosize=1;resizeHeight=0;resizeWidth=0;fixedWidth=0;size=20;" parent="1" vertex="1">
            <mxGeometry x="1340" y="930" width="80" height="70" as="geometry" />
          </mxCell>
        </object>
        <object label="" heigth="50&#xa;" id="kzY0joeilmkfOgr9uoT9-67">
          <mxCell style="shape=hexagon;perimeter=hexagonPerimeter2;whiteSpace=wrap;html=1;fixedSize=1;perimeterSpacing=0;autosize=1;resizeHeight=0;resizeWidth=0;fixedWidth=0;size=20;" parent="1" vertex="1">
            <mxGeometry x="1340" y="1000" width="80" height="70" as="geometry" />
          </mxCell>
        </object>
        <object label="" heigth="50&#xa;" id="kzY0joeilmkfOgr9uoT9-68">
          <mxCell style="shape=hexagon;perimeter=hexagonPerimeter2;whiteSpace=wrap;html=1;fixedSize=1;perimeterSpacing=0;autosize=1;resizeHeight=0;resizeWidth=0;fixedWidth=0;size=20;" parent="1" vertex="1">
            <mxGeometry x="1280" y="965" width="80" height="70" as="geometry" />
          </mxCell>
        </object>
        <object label="" heigth="50&#xa;" id="kzY0joeilmkfOgr9uoT9-69">
          <mxCell style="shape=hexagon;perimeter=hexagonPerimeter2;whiteSpace=wrap;html=1;fixedSize=1;perimeterSpacing=0;autosize=1;resizeHeight=0;resizeWidth=0;fixedWidth=0;size=20;" parent="1" vertex="1">
            <mxGeometry x="1220" y="1000" width="80" height="70" as="geometry" />
          </mxCell>
        </object>
        <object label="" heigth="50&#xa;" id="kzY0joeilmkfOgr9uoT9-70">
          <mxCell style="shape=hexagon;perimeter=hexagonPerimeter2;whiteSpace=wrap;html=1;fixedSize=1;perimeterSpacing=0;autosize=1;resizeHeight=0;resizeWidth=0;fixedWidth=0;size=20;" parent="1" vertex="1">
            <mxGeometry x="1280" y="1035" width="80" height="70" as="geometry" />
          </mxCell>
        </object>
        <object label="" heigth="50&#xa;" id="kzY0joeilmkfOgr9uoT9-71">
          <mxCell style="shape=hexagon;perimeter=hexagonPerimeter2;whiteSpace=wrap;html=1;fixedSize=1;perimeterSpacing=0;autosize=1;resizeHeight=0;resizeWidth=0;fixedWidth=0;size=20;" parent="1" vertex="1">
            <mxGeometry x="1220" y="1140" width="80" height="70" as="geometry" />
          </mxCell>
        </object>
        <object label="" heigth="50&#xa;" id="kzY0joeilmkfOgr9uoT9-72">
          <mxCell style="shape=hexagon;perimeter=hexagonPerimeter2;whiteSpace=wrap;html=1;fixedSize=1;perimeterSpacing=0;autosize=1;resizeHeight=0;resizeWidth=0;fixedWidth=0;size=20;" parent="1" vertex="1">
            <mxGeometry x="1220" y="1210" width="80" height="70" as="geometry" />
          </mxCell>
        </object>
        <mxCell id="kzY0joeilmkfOgr9uoT9-73" value="" style="shape=parallelogram;perimeter=parallelogramPerimeter;whiteSpace=wrap;html=1;fixedSize=1;rotation=120;direction=west;flipH=0;" parent="1" vertex="1">
          <mxGeometry x="1130" y="597.5" width="60" height="35" as="geometry" />
        </mxCell>
        <mxCell id="kzY0joeilmkfOgr9uoT9-74" value="" style="shape=parallelogram;perimeter=parallelogramPerimeter;whiteSpace=wrap;html=1;fixedSize=1;rotation=120;direction=west;flipH=0;" parent="1" vertex="1">
          <mxGeometry x="1050" y="597.5" width="60" height="35" as="geometry" />
        </mxCell>
        <mxCell id="kzY0joeilmkfOgr9uoT9-75" value="" style="shape=parallelogram;perimeter=parallelogramPerimeter;whiteSpace=wrap;html=1;fixedSize=1;rotation=120;direction=west;flipH=0;" parent="1" vertex="1">
          <mxGeometry x="1050" y="667.5" width="60" height="35" as="geometry" />
        </mxCell>
        <mxCell id="kzY0joeilmkfOgr9uoT9-76" value="" style="shape=parallelogram;perimeter=parallelogramPerimeter;whiteSpace=wrap;html=1;fixedSize=1;rotation=120;direction=west;flipH=0;" parent="1" vertex="1">
          <mxGeometry x="1130" y="667.5" width="60" height="35" as="geometry" />
        </mxCell>
        <mxCell id="kzY0joeilmkfOgr9uoT9-77" value="" style="shape=parallelogram;perimeter=parallelogramPerimeter;whiteSpace=wrap;html=1;fixedSize=1;rotation=120;direction=west;flipH=0;" parent="1" vertex="1">
          <mxGeometry x="1049.5" y="1300" width="60" height="35" as="geometry" />
        </mxCell>
        <mxCell id="kzY0joeilmkfOgr9uoT9-78" value="" style="shape=parallelogram;perimeter=parallelogramPerimeter;whiteSpace=wrap;html=1;fixedSize=1;rotation=120;direction=west;flipH=0;" parent="1" vertex="1">
          <mxGeometry x="1130" y="1300" width="60" height="35" as="geometry" />
        </mxCell>
        <mxCell id="kzY0joeilmkfOgr9uoT9-79" value="" style="shape=parallelogram;perimeter=parallelogramPerimeter;whiteSpace=wrap;html=1;fixedSize=1;rotation=120;direction=west;flipH=0;" parent="1" vertex="1">
          <mxGeometry x="1190" y="1122.5" width="60" height="35" as="geometry" />
        </mxCell>
        <mxCell id="kzY0joeilmkfOgr9uoT9-80" value="" style="shape=trapezoid;perimeter=trapezoidPerimeter;whiteSpace=wrap;html=1;fixedSize=1;" parent="1" vertex="1">
          <mxGeometry x="1160" y="1245" width="80" height="35" as="geometry" />
        </mxCell>
        <object label="" heigth="50&#xa;" id="aBgzKCvds8TfmNxK6xY9-1">
          <mxCell style="shape=hexagon;perimeter=hexagonPerimeter2;whiteSpace=wrap;html=1;fixedSize=1;perimeterSpacing=0;autosize=1;resizeHeight=0;resizeWidth=0;fixedWidth=0;size=200;shadow=1;fillColor=#008a00;fontColor=#ffffff;strokeColor=#005700;opacity=50;" parent="1" vertex="1">
            <mxGeometry x="1320" y="-400" width="800" height="700" as="geometry" />
          </mxCell>
        </object>
        <object label="" heigth="50&#xa;" id="aBgzKCvds8TfmNxK6xY9-2">
          <mxCell style="shape=hexagon;perimeter=hexagonPerimeter2;whiteSpace=wrap;html=1;fixedSize=1;perimeterSpacing=0;autosize=1;resizeHeight=0;resizeWidth=0;fixedWidth=0;size=160;shadow=1;fillColor=#a20025;fontColor=#ffffff;strokeColor=#6F0000;opacity=50;" parent="1" vertex="1">
            <mxGeometry x="1400" y="-330" width="640" height="560" as="geometry" />
          </mxCell>
        </object>
        <object label="" heigth="50&#xa;" id="UR_MYOPgtXXA2jI3xzK3-2">
          <mxCell style="shape=hexagon;perimeter=hexagonPerimeter2;whiteSpace=wrap;html=1;fixedSize=1;perimeterSpacing=0;autosize=1;resizeHeight=0;resizeWidth=0;fixedWidth=0;size=20;" vertex="1" parent="1">
            <mxGeometry x="440" y="1560" width="80" height="70" as="geometry" />
          </mxCell>
        </object>
        <object label="" heigth="50&#xa;" id="UR_MYOPgtXXA2jI3xzK3-3">
          <mxCell style="shape=hexagon;perimeter=hexagonPerimeter2;whiteSpace=wrap;html=1;fixedSize=1;perimeterSpacing=0;autosize=1;resizeHeight=0;resizeWidth=0;fixedWidth=0;size=20;" vertex="1" parent="1">
            <mxGeometry x="440" y="1490" width="80" height="70" as="geometry" />
          </mxCell>
        </object>
        <mxCell id="UR_MYOPgtXXA2jI3xzK3-4" value="" style="shape=trapezoid;perimeter=trapezoidPerimeter;whiteSpace=wrap;html=1;fixedSize=1;" vertex="1" parent="1">
          <mxGeometry x="440" y="1630" width="80" height="35" as="geometry" />
        </mxCell>
        <mxCell id="UR_MYOPgtXXA2jI3xzK3-5" value="" style="shape=trapezoid;perimeter=trapezoidPerimeter;whiteSpace=wrap;html=1;fixedSize=1;rotation=-180;" vertex="1" parent="1">
          <mxGeometry x="440" y="1455" width="80" height="35" as="geometry" />
        </mxCell>
        <object label="" heigth="50&#xa;" id="UR_MYOPgtXXA2jI3xzK3-6">
          <mxCell style="shape=hexagon;perimeter=hexagonPerimeter2;whiteSpace=wrap;html=1;fixedSize=1;perimeterSpacing=0;autosize=1;resizeHeight=0;resizeWidth=0;fixedWidth=0;size=20;" vertex="1" parent="1">
            <mxGeometry x="380" y="1455" width="80" height="70" as="geometry" />
          </mxCell>
        </object>
        <object label="" heigth="50&#xa;" id="UR_MYOPgtXXA2jI3xzK3-7">
          <mxCell style="shape=hexagon;perimeter=hexagonPerimeter2;whiteSpace=wrap;html=1;fixedSize=1;perimeterSpacing=0;autosize=1;resizeHeight=0;resizeWidth=0;fixedWidth=0;size=20;" vertex="1" parent="1">
            <mxGeometry x="380" y="1525" width="80" height="70" as="geometry" />
          </mxCell>
        </object>
        <object label="" heigth="50&#xa;" id="UR_MYOPgtXXA2jI3xzK3-9">
          <mxCell style="shape=hexagon;perimeter=hexagonPerimeter2;whiteSpace=wrap;html=1;fixedSize=1;perimeterSpacing=0;autosize=1;resizeHeight=0;resizeWidth=0;fixedWidth=0;size=20;" vertex="1" parent="1">
            <mxGeometry x="440" y="1770" width="80" height="70" as="geometry" />
          </mxCell>
        </object>
        <object label="" heigth="50&#xa;" id="UR_MYOPgtXXA2jI3xzK3-10">
          <mxCell style="shape=hexagon;perimeter=hexagonPerimeter2;whiteSpace=wrap;html=1;fixedSize=1;perimeterSpacing=0;autosize=1;resizeHeight=0;resizeWidth=0;fixedWidth=0;size=20;" vertex="1" parent="1">
            <mxGeometry x="440" y="1700" width="80" height="70" as="geometry" />
          </mxCell>
        </object>
        <mxCell id="UR_MYOPgtXXA2jI3xzK3-11" value="" style="shape=trapezoid;perimeter=trapezoidPerimeter;whiteSpace=wrap;html=1;fixedSize=1;" vertex="1" parent="1">
          <mxGeometry x="440" y="1840" width="80" height="35" as="geometry" />
        </mxCell>
        <mxCell id="UR_MYOPgtXXA2jI3xzK3-12" value="" style="shape=trapezoid;perimeter=trapezoidPerimeter;whiteSpace=wrap;html=1;fixedSize=1;rotation=-180;" vertex="1" parent="1">
          <mxGeometry x="440" y="1665" width="80" height="35" as="geometry" />
        </mxCell>
        <object label="" heigth="50&#xa;" id="UR_MYOPgtXXA2jI3xzK3-13">
          <mxCell style="shape=hexagon;perimeter=hexagonPerimeter2;whiteSpace=wrap;html=1;fixedSize=1;perimeterSpacing=0;autosize=1;resizeHeight=0;resizeWidth=0;fixedWidth=0;size=20;" vertex="1" parent="1">
            <mxGeometry x="380" y="1595" width="80" height="70" as="geometry" />
          </mxCell>
        </object>
        <object label="" heigth="50&#xa;" id="UR_MYOPgtXXA2jI3xzK3-14">
          <mxCell style="shape=hexagon;perimeter=hexagonPerimeter2;whiteSpace=wrap;html=1;fixedSize=1;perimeterSpacing=0;autosize=1;resizeHeight=0;resizeWidth=0;fixedWidth=0;size=20;" vertex="1" parent="1">
            <mxGeometry x="320" y="1630" width="80" height="70" as="geometry" />
          </mxCell>
        </object>
        <mxCell id="UR_MYOPgtXXA2jI3xzK3-15" value="" style="shape=parallelogram;perimeter=parallelogramPerimeter;whiteSpace=wrap;html=1;fixedSize=1;rotation=120;direction=west;flipH=0;" vertex="1" parent="1">
          <mxGeometry x="230" y="1647.5" width="60" height="35" as="geometry" />
        </mxCell>
        <object label="" heigth="50&#xa;" id="UR_MYOPgtXXA2jI3xzK3-16">
          <mxCell style="shape=hexagon;perimeter=hexagonPerimeter2;whiteSpace=wrap;html=1;fixedSize=1;perimeterSpacing=0;autosize=1;resizeHeight=0;resizeWidth=0;fixedWidth=0;size=20;" vertex="1" parent="1">
            <mxGeometry x="560" y="1630" width="80" height="70" as="geometry" />
          </mxCell>
        </object>
        <object label="" heigth="50&#xa;" id="UR_MYOPgtXXA2jI3xzK3-17">
          <mxCell style="shape=hexagon;perimeter=hexagonPerimeter2;whiteSpace=wrap;html=1;fixedSize=1;perimeterSpacing=0;autosize=1;resizeHeight=0;resizeWidth=0;fixedWidth=0;size=20;" vertex="1" parent="1">
            <mxGeometry x="500" y="1595" width="80" height="70" as="geometry" />
          </mxCell>
        </object>
        <mxCell id="UR_MYOPgtXXA2jI3xzK3-18" value="" style="shape=parallelogram;perimeter=parallelogramPerimeter;whiteSpace=wrap;html=1;fixedSize=1;rotation=120;direction=west;flipH=0;" vertex="1" parent="1">
          <mxGeometry x="670" y="1647.5" width="60" height="35" as="geometry" />
        </mxCell>
        <mxCell id="UR_MYOPgtXXA2jI3xzK3-20" style="edgeStyle=orthogonalEdgeStyle;rounded=0;orthogonalLoop=1;jettySize=auto;html=1;exitX=0;exitY=0.25;exitDx=0;exitDy=0;entryX=0;entryY=0;entryDx=0;entryDy=0;" edge="1" parent="1" source="UR_MYOPgtXXA2jI3xzK3-15" target="UR_MYOPgtXXA2jI3xzK3-15">
          <mxGeometry relative="1" as="geometry" />
        </mxCell>
        <object label="" heigth="50&#xa;" id="UR_MYOPgtXXA2jI3xzK3-22">
          <mxCell style="shape=hexagon;perimeter=hexagonPerimeter2;whiteSpace=wrap;html=1;fixedSize=1;perimeterSpacing=0;autosize=1;resizeHeight=0;resizeWidth=0;fixedWidth=0;size=20;" vertex="1" parent="1">
            <mxGeometry x="260" y="1595" width="80" height="70" as="geometry" />
          </mxCell>
        </object>
        <object label="" heigth="50&#xa;" id="UR_MYOPgtXXA2jI3xzK3-24">
          <mxCell style="shape=hexagon;perimeter=hexagonPerimeter2;whiteSpace=wrap;html=1;fixedSize=1;perimeterSpacing=0;autosize=1;resizeHeight=0;resizeWidth=0;fixedWidth=0;size=20;" vertex="1" parent="1">
            <mxGeometry x="320" y="1560" width="80" height="70" as="geometry" />
          </mxCell>
        </object>
        <object label="" heigth="50&#xa;" id="UR_MYOPgtXXA2jI3xzK3-25">
          <mxCell style="shape=hexagon;perimeter=hexagonPerimeter2;whiteSpace=wrap;html=1;fixedSize=1;perimeterSpacing=0;autosize=1;resizeHeight=0;resizeWidth=0;fixedWidth=0;size=20;" vertex="1" parent="1">
            <mxGeometry x="320" y="1490" width="80" height="70" as="geometry" />
          </mxCell>
        </object>
        <mxCell id="UR_MYOPgtXXA2jI3xzK3-27" value="" style="shape=parallelogram;perimeter=parallelogramPerimeter;whiteSpace=wrap;html=1;fixedSize=1;rotation=-180;direction=west;flipH=0;" vertex="1" parent="1">
          <mxGeometry x="340" y="1455" width="60" height="35" as="geometry" />
        </mxCell>
        <object label="" heigth="50&#xa;" id="UR_MYOPgtXXA2jI3xzK3-28">
          <mxCell style="shape=hexagon;perimeter=hexagonPerimeter2;whiteSpace=wrap;html=1;fixedSize=1;perimeterSpacing=0;autosize=1;resizeHeight=0;resizeWidth=0;fixedWidth=0;size=20;" vertex="1" parent="1">
            <mxGeometry x="620" y="1595" width="80" height="70" as="geometry" />
          </mxCell>
        </object>
        <object label="" heigth="50&#xa;" id="UR_MYOPgtXXA2jI3xzK3-29">
          <mxCell style="shape=hexagon;perimeter=hexagonPerimeter2;whiteSpace=wrap;html=1;fixedSize=1;perimeterSpacing=0;autosize=1;resizeHeight=0;resizeWidth=0;fixedWidth=0;size=20;" vertex="1" parent="1">
            <mxGeometry x="620" y="1665" width="80" height="70" as="geometry" />
          </mxCell>
        </object>
        <object label="" heigth="50&#xa;" id="UR_MYOPgtXXA2jI3xzK3-30">
          <mxCell style="shape=hexagon;perimeter=hexagonPerimeter2;whiteSpace=wrap;html=1;fixedSize=1;perimeterSpacing=0;autosize=1;resizeHeight=0;resizeWidth=0;fixedWidth=0;size=20;" vertex="1" parent="1">
            <mxGeometry x="560" y="1700" width="80" height="70" as="geometry" />
          </mxCell>
        </object>
        <object label="" heigth="50&#xa;" id="UR_MYOPgtXXA2jI3xzK3-31">
          <mxCell style="shape=hexagon;perimeter=hexagonPerimeter2;whiteSpace=wrap;html=1;fixedSize=1;perimeterSpacing=0;autosize=1;resizeHeight=0;resizeWidth=0;fixedWidth=0;size=20;" vertex="1" parent="1">
            <mxGeometry x="500" y="1735" width="80" height="70" as="geometry" />
          </mxCell>
        </object>
        <object label="" heigth="50&#xa;" id="UR_MYOPgtXXA2jI3xzK3-32">
          <mxCell style="shape=hexagon;perimeter=hexagonPerimeter2;whiteSpace=wrap;html=1;fixedSize=1;perimeterSpacing=0;autosize=1;resizeHeight=0;resizeWidth=0;fixedWidth=0;size=20;" vertex="1" parent="1">
            <mxGeometry x="500" y="1805" width="80" height="70" as="geometry" />
          </mxCell>
        </object>
        <mxCell id="UR_MYOPgtXXA2jI3xzK3-33" value="" style="shape=parallelogram;perimeter=parallelogramPerimeter;whiteSpace=wrap;html=1;fixedSize=1;rotation=-180;direction=west;flipH=0;" vertex="1" parent="1">
          <mxGeometry x="560" y="1840" width="60" height="35" as="geometry" />
        </mxCell>
        <object label="" heigth="50&#xa;" id="UR_MYOPgtXXA2jI3xzK3-34">
          <mxCell style="shape=hexagon;perimeter=hexagonPerimeter2;whiteSpace=wrap;html=1;fixedSize=1;perimeterSpacing=0;autosize=1;resizeHeight=0;resizeWidth=0;fixedWidth=0;size=20;" vertex="1" parent="1">
            <mxGeometry x="560" y="1770" width="80" height="70" as="geometry" />
          </mxCell>
        </object>
        <object label="" heigth="50&#xa;" id="UR_MYOPgtXXA2jI3xzK3-35">
          <mxCell style="shape=hexagon;perimeter=hexagonPerimeter2;whiteSpace=wrap;html=1;fixedSize=1;perimeterSpacing=0;autosize=1;resizeHeight=0;resizeWidth=0;fixedWidth=0;size=20;" vertex="1" parent="1">
            <mxGeometry x="500" y="1665" width="80" height="70" as="geometry" />
          </mxCell>
        </object>
        <object label="" heigth="50&#xa;" id="UR_MYOPgtXXA2jI3xzK3-36">
          <mxCell style="shape=hexagon;perimeter=hexagonPerimeter2;whiteSpace=wrap;html=1;fixedSize=1;perimeterSpacing=0;autosize=1;resizeHeight=0;resizeWidth=0;fixedWidth=0;size=20;" vertex="1" parent="1">
            <mxGeometry x="230" y="1510" width="80" height="70" as="geometry" />
          </mxCell>
        </object>
      </root>
    </mxGraphModel>
  </diagram>
</mxfile>
